<?xml version="1.0" encoding="UTF-8"?><svg id="Layer_1" xmlns="http://www.w3.org/2000/svg" viewBox="0 0 670 670"><path d="M0,669.5V0h670v670H0v-.5ZM321.73,28.9c-6.87.02-14.15,1.38-20.69,3.59l-15.28,5.14-2.39.82-6.46,3.06c-5.9,2.8-11.84,5.77-17.35,10.07l-7.7,6.02-3.49,2.55-6.74,6.54c-3.65,3.54-7.48,7.29-10.45,11.45l-12.11,16.92-3.63,5.36-6.88,11.16-1.92,3.3-23.68,40.95-4.8,8.41-9.09,15.87-7.93,13.84-1.65,2.85-8.36,14.35-3.36,5.78-15.3,26.6-2.87,5.09-9.52,16.36-4.43,7.76-9.51,16.41-6.28,10.88-6.27,10.95-9.5,16.61-1.47,3.46c-.42,1-1.8,2.79-2.51,3.87l-1.96,2.98-13.92,24.3-7.59,13.48-2.45,4.32-3.33,5.88-10.06,18-5.83,12.11c-2.89,6.01-5.47,12.38-6.99,18.87l-2.79,11.93c-2.54,10.86-2.95,22.41-1.69,33.38l.99,8.6c1.41,12.32,6.48,25.45,11.15,36.19l1.62,3.73c5.18,8.89,10.03,17.59,17.25,24.86l11.43,11.5,5.98,4.99c12.59,10.51,33.76,20.11,50.04,24.06,7.77,1.88,15.54,3,22.89,2.97l1.36.91h196.81s149.85-.02,149.85-.02l6.99-.33,26.16-.35c16.88-.51,33.11-4.38,47.77-12.4l14.22-7.77,13.99-10.15c6.92-5.02,12.23-11.63,17.39-17.94,7.63-9.32,13.46-19.89,18.14-30.93,9.79-23.06,12.05-52.28,6.25-76.84l-1.53-6.49-1.96-6.47c-4.27-14.08-11.71-27.09-19.29-40.17l-6.65-11.47-3.97-6.86-2.86-4.99-39.83-69.39-6.58-11.4-5.86-10.16-11.02-19.15-15.36-26.64-15.72-27.23-9.88-17.11-7.19-12.59-9.95-17.32-5.66-9.27-3.25-5.5-3.97-7.24-13.14-22.87-3.7-5.93-2-3.35-12.32-17.75-6.15-7.8-7.26-7.81-6.2-5.73-10.2-7.9-4.1-2.76c-11.29-7.62-23.98-13.28-37.18-16.96-6.85-1.91-13.9-3.34-20.93-4.1l-6.03-.66-18.89-.25c-.91-.01-3.36.47-3.4.95Z" style="fill:#fefefe;"/><path d="M119.39,481.86l-.82,1.35-3.26,5.94-3.93,7.19-5.37,9.84c-1.87,3.42-2.91,7.35-3.14,11.01l-.54-1.04-.83-2.7-.85,3.57c-2.13,8.94-2.47,9.15,1.01,17.31.92,2.16,2.32,4.9,3.54,6.12l3.08,3.09,2.56,2.98c1.61,1.88,5.22,3.61,7.79,3.92l8.34,1.03c6.93.86,10.08-1.08,15.24.83l-3.35.69c-.93.19-2.99.74-3.73,1.11l-4.8,2.45-7.81,2.38-8.64,2.97c-3.73,1.28-6.21,3.19-6.03,4.67.33,2.61,2.53,6.26,5.32,7.23l7.93,2.75c1.05.36,4.1.96,4.78,1.74,4.17,4.81.56,8.63,9.83,11.88l7.52,2.63,6.36.6c2.06,1.17,5.03,2.59,7.29,2.59h22.97s4.22.02,4.22.02c.47,0,1.9.85,1.97.98l-41.21.11c-7.35.02-15.13-1.09-22.89-2.97-16.28-3.95-37.44-13.55-50.04-24.06l-5.98-4.99-11.43-11.5c-7.22-7.26-12.07-15.97-17.25-24.86l-1.62-3.73,3.37.8,6.19,1.04,5.02.84c1.19.2,4.32-.26,5.47-.83l7.44-3.7,4.74-.5,5.96-.78.75-4.56c2.7-1.24,6.8-1.73,9.65-.75l4.52,1.54,4.42-3.94,5.7-4.51c1.23-.98,2.16-4.26,3.1-5.9l3.12-5.44c7.83-5.45,6.81-13.35,12.97-17.38l1.37.95Z" style="fill:#43cbdc;"/><path d="M456.39,103.02l3.7,5.93,13.14,22.87,3.97,7.24,3.25,5.5,5.66,9.27,9.95,17.32c-.23-.09-2.7.41-2.76,1.11l-.42,4.79c-.19,2.18-.31,5.35.29,7.15l2.7,8.21,2.79,6.53,1.04,6.11,1.38,8.09-4.31,1.8c.1,2.04.52,5.44,1.17,6.92l4.32,9.86,1.99,6.03-3.86,2.87c.38,1.6.64,3.59,1.08,4.24l3.51,5.14-.97,5.1,2.43,3.6c.48.71,1.18,2.61,1.51,3.78.73,2.65-.99,5.79-3.45,6.62l-3.12-2.68-5.69-7.88-2.82-4.65-2.44-6.63-3.46-6.18c-.2-.36-1.47-1.45-1.3-1.25l-3.75-6-3.69,2.26-4.34-4.23c-1.22-1.18-2.89-3.51-3.55-5.02l-3.73-8.54-3.46-6.31-7.25-13.89-1.86-4.08-3.52-8.47-3.93-8.01-.89-1.6,1.96-.75c2.32-.92,5.06-.74,7.81.51l4.6-3.1c.87-.33,3.34-.78,4.09-1.37l4.04-3.17-.67-10.69c-.12-1.99-.44-3.71.11-5.47l3.83,2.9c.9.68,2.36-2.66,1.72-3.69l-3.53-5.72c-.33-.54-2.45-.69-2.73-.12l-.93,1.87c-.27.55-1.93,1.2-2.39.83-.3-.25-1.02-1.1-1.22-1.49l-2.87-5.65-2.51-7.12c-.51-1.44-1.17-4.67-.13-5.83,1.54-1.71,3.67-5.44-.16-6.73-1.38-.46-2.53-2.02-2.89-3.46l-1.35-5.34c-.53-2.11.12-6.31.69-8.71l3.18-.61Z" style="fill:#decffc;"/><path d="M456.39,103.02l-3.18.61c-.57,2.4-1.22,6.6-.69,8.71l1.35,5.34c.36,1.45,1.51,3,2.89,3.46,3.82,1.29,1.69,5.01.16,6.73-1.04,1.16-.38,4.39.13,5.83l2.51,7.12,2.87,5.65c.2.39.91,1.24,1.22,1.49.45.38,2.12-.28,2.39-.83l.93-1.87c.28-.57,2.4-.42,2.73.12l3.53,5.72c.64,1.04-.82,4.37-1.72,3.69l-3.83-2.9c-.55,1.76-.24,3.48-.11,5.47l.67,10.69-4.04,3.17c-.75.59-3.21,1.04-4.09,1.37l-4.6,3.1c-2.75-1.25-5.5-1.43-7.81-.51l-1.96.75-3.6-3.25-5.24-3.53c-.47-.32-1.52-1.85-1.77-2.38l-1.13-1.66,2.08-4.31c.4-.83.45-2.9.11-3.92l-2.49-7.46-2.22-6.12-3.45-8.34-2.41-4.59-2.35-7.52-1.28-4.93-2.89-10.06-3.21-7.08c-1.01-2.22-1.21-5.11-2.03-7.82l-3.66-12.08-2.4-5.94-3.04-7.09-.99-4.95c-.2-1,2.22-3.07,2.29-4.06l.43-6.55,1.67-2.4,4.1,2.76,10.2,7.9,6.2,5.73,7.26,7.81,6.15,7.8,12.32,17.75,2,3.35Z" style="fill:#ddd2fc;"/><path d="M350.05,28.86l-1.16,4.42c-.32,1.64.68,5.25,1.9,6.71,6.08,7.32,2.41,9.3,4.27,14.48l2.78,7.71,2.77,7.12,1.91,5.49,2.69,8.11.46,4.21,2.91,10.04,1.99,11.27,1.72,7.57,5.35,12.23,2.61,5.86,2.55,7.89,5.86,12.51,2.04,1.81c.08,5.63,1.67,10.64,4.15,15.67l4.04,8.18,2,4.05,2.08,6.75c.25.81-.68,3.2-1.14,3.86l-3.07,4.24c-.79-.81-3.38-2.91-4.51-2.23l-.16-2.83-21.39-37.66-8-14.07-18.86-33.02-1.46-4.72-1.78-7.28-3.13-10.19c-.86-2.78-4.43-6.96-5.1-9.95l-1.2-5.36-1.46-7.66c.1-3.35-.82-6.15-1.17-9.34l-.74-6.61c-.29-2.59-8.32-9.19-3.25-15.18.54-.64.63-3.28.47-4.06l-5.28.02c.04-.48,2.49-.96,3.4-.95l18.89.25,6.03.66Z" style="fill:#cfd9fb;"/><path d="M561.08,284.04l6.58,11.4,39.83,69.39-3.32,2.43-3.12,2.5-5.52-1.06-3.73-4.63-2.94-3.08c-2.27-2.38-5.24-3.79-8.41-4.63l-7.11-1.88-2.71-2.01c-4.2-.92-8.13-1.96-11.7-4.34l-4.79-3.2-5.77-4.37-3.84-2.98-6.26-4.82-4.97-4.18c-.9-.76-2.12-2.04-2.63-2.8l1.43-.03-.3-5.89c-.06-1.23-.2-3.88-.75-4.84l-2.81-4.92.65-4.04c-7.86-5.18-13.92-10.81-11.03-18.21l1.62-4.15-2.21-4.06-2.95-1.47-2.49.75c-.35.11-1.29-1.12-1.36-1.5l-.64-3.65,4.31-.32c1-.07,3.02,1.83,3.71,2.54l4.59,4.6,2.28,2.83c1.37-.37,3.3-.84,3.81-.3l2.6,2.74c2.62,1.67,4.69,3.77,6.5,6.38l1.73,2.49c.36.52,4.24-4.94,6.5-3.65l5.11,2.92,4.9-2.31c1.34-.63,2.77-2.88,3.33-4.42l1.88-3.23Z" style="fill:#dbc8fc;"/><path d="M408.16,49.92l-1.67,2.4-.43,6.55c-.07,1-2.49,3.06-2.29,4.06l.99,4.95,3.04,7.09,2.4,5.94,3.66,12.08c.82,2.71,1.02,5.6,2.03,7.82l3.21,7.08,2.89,10.06,1.28,4.93,2.35,7.52,2.41,4.59,3.45,8.34,2.22,6.12,2.49,7.46c.34,1.02.28,3.1-.11,3.92l-2.08,4.31-1.85-.55.9,4.36c.16.77,1.25,2.95.51,3.24l-3.28,1.29-5.22-7.6-3.45-3.98-4.93-.84-2.49-3.17-4.98-7.84-5.68-11.27-5.09-10.1-.1-5.46-1.03-3.24-.96-5.31c-.22-1.23-.96-4.06-1.63-5.18l-3.79-6.39c-.63-1.06-1.81-3.68-1.99-4.86l-.8-5.35c-.42-2.79-1.4-5.44-2.74-7.48l-4.11-6.23c1.47-5.39-3.95-8.9-2.65-17.04.6-3.78.42-6.14-1.2-9.46l-4.1-8.36c-.73-1.49-1.64-4.32-1.87-5.8l-.45-5.58c13.2,3.68,25.89,9.35,37.18,16.96Z" style="fill:#d9d4fc;"/><path d="M496.06,171.17l7.19,12.59,9.88,17.11,15.72,27.23,15.36,26.64,11.02,19.15,5.86,10.16-1.88,3.23c-.56,1.54-1.99,3.79-3.33,4.42l-4.9,2.31-5.11-2.92c-2.26-1.29-6.14,4.17-6.5,3.65l-1.73-2.49c-1.81-2.61-3.88-4.71-6.5-6.38l-2.6-2.74c-.51-.54-2.45-.06-3.81.3l-2.28-2.83-4.59-4.6c-.69-.71-2.72-2.62-3.71-2.54l-4.31.32c-.41.03-1-.57-1.51-1.06l-3.81-3.61c2.45-.83,4.18-3.96,3.45-6.62-.32-1.17-1.03-3.07-1.51-3.78l-2.43-3.6.97-5.1-3.51-5.14c-.44-.65-.7-2.64-1.08-4.24l3.86-2.87-1.99-6.03-4.32-9.86c-.65-1.48-1.07-4.87-1.17-6.92l4.31-1.8-1.38-8.09-1.04-6.11-2.79-6.53-2.7-8.21c-.59-1.81-.48-4.97-.29-7.15l.42-4.79c.06-.7,2.52-1.2,2.76-1.11Z" style="fill:#dfccfc;"/><path d="M530.68,325.78c.51.76,1.73,2.04,2.63,2.8l4.97,4.18,6.26,4.82,3.84,2.98,5.77,4.37,4.79,3.2c3.56,2.38,7.5,3.42,11.7,4.34l2.71,2.01,7.11,1.88c3.17.84,6.13,2.25,8.41,4.63l2.94,3.08,3.73,4.63,5.52,1.06,3.12-2.5,3.32-2.43,2.86,4.99-2.73,6.09c-1.3,4.26-.59,7.84,3.08,9.43,1.85.8,2.71,3.63,1.8,4.77-2-1.43-4.58-3.16-5.87-2.55l-4.31,2.04c-5.04,2.38-7.51-5.63-14.62-1.09l-3.74-.66-5.79-1.02c-2.92,1.67-5.82,1.61-8.66-.39-5.05-3.56-9.77-1.69-11.29-2.72l-4.07-2.76-3.11-1.83-3.82-2.17-6.73-4.45-3.57-1.46-2.22-4.19c-.55-1.04-1.72-3.11-2.6-3.72l-3.84-2.7-4.04-4.46-4.03-3.13-3.52-2.42,2.05-2.87-.91-6.66c-.19-1.41-.62-3.2-1.05-4.4l-1.63-4.53-2.86-7.26c-1.01-2.56-2.15-4.74-2.19-7.07l3.52.99,4.29.93,6.74,1.81c2.28.61,4.84,2.63,6.05,4.42Z" style="fill:#d6c4fc;"/><path d="M640.26,428.32l-1.54.19c-1.79.23,1.34,5.55-3.91,10.37-.62.57-2.84,1.29-3.67,1.1l-4.25-.95-6.37-.74-3.74-1.3-1.27-1.66c-.86-1.19-2.97-3.64-4.68-4.32-2-.8-5.03,2.07-5.52,3.82-1.16-.54-2.99-1.52-3.35-1.98l-4.29-5.42-3.11-3.88-4.08-4.13c-4.24-4.29-7.55,0-12.56-7.47-.8-1.19-2.37-2.27-3.64-3.29l-3.26-2.63-4.48-3.71c-.9-.74-3.21-1.99-3.76-2.93l-2.32-3.94-1.54-1.11.22-4.5-.91-6.14c1.52,1.03,6.24-.83,11.29,2.72,2.84,2,5.74,2.05,8.66.39l5.79,1.02,3.74.66c7.11-4.54,9.58,3.47,14.62,1.09l4.31-2.04c1.29-.61,3.87,1.12,5.87,2.55.91-1.15.05-3.97-1.8-4.77-3.67-1.59-4.38-5.18-3.08-9.43l2.73-6.09,3.97,6.86,6.65,11.47c7.58,13.09,15.02,26.09,19.29,40.17Z" style="fill:#d5bffc;"/><path d="M616.78,436.99l3.74,1.3,6.37.74,4.25.95c.84.19,3.05-.53,3.67-1.1,5.25-4.83,2.12-10.14,3.91-10.37l1.54-.19,1.96,6.47,1.53,6.49-1.03,3.85-2.31,6.19-2.19,5.07-2.59,7.47c-.75,2.17-.59,5.08-.18,7.73-.29,1.46-2.84,4.51-4.25,5.6l-7.63-1.47-.89,2-3.83-2.82c-3.78-4.89-13.93.63-20.44-5.11-.63-.55-2.06-2.41-2.74-2.69l-5.43-2.23c-2.79,2.15-6.09,1.31-7.99-1.04l-4.6-5.67-4.78-4.18-4.71-4.12c-.48-.42-1.29-2.08-1.64-2.82l-7.37-2.32c-2.04-.64-4.35-2.02-6.49-3.5l-4.96-.11-3-3.87,1.55.03,1.67-6.37,4.67-.42c4.47-3.9,5.73,1.36,10.36-1.6,4.99-3.19,8.26,3.49,10.29,1.5.99-.97,3.27-2.94,4.27-2.42l4.17,2.2,3.85,2.29,7.46,1.11c2.42.36,6.84,2.82,9.03,4.25l4.8,3.16c1.7-1.99,4.08-4.15,5.72-4.11l4.24.12Z" style="fill:#cebafc;"/><path d="M370.98,32.96l.45,5.58c.23,1.48,1.14,4.31,1.87,5.8l4.1,8.36c1.62,3.31,1.81,5.68,1.2,9.46-1.3,8.14,4.12,11.65,2.65,17.04l4.11,6.23-.36,3.65c-.68,1.46-1.29,4.85-.62,6.38l4.29,9.72.34,4.91,2.74,8.13,2.91,6.46,2.03,5.94,1.93,8.13c.57,2.39.53,5.12-.15,7.79-.32,1.27.26,3.97.25,5.54l-.06,8.17c-.01,1.35.42,3.57.97,5.1l.35,10.77,2.12,2.79c1.05,3.95,2.37,7.34,4.21,10.76l3.64,8.7,2.69,6.2c.77,1.77.25,6.08-.12,8.02-1.14,5.96,1.39,6.82-.2,9.31l-1.33-.74-10.88-19.27-1.35-2.81,3.07-4.24c.45-.67,1.38-3.05,1.14-3.86l-2.08-6.75-2-4.05-4.04-8.18c-2.48-5.03-4.06-10.04-4.15-15.67l-2.04-1.81-5.86-12.51-2.55-7.89-2.61-5.86-5.35-12.23-1.72-7.57-1.99-11.27-2.91-10.04-.46-4.21-2.69-8.11-1.91-5.49-2.77-7.12-2.78-7.71c-1.87-5.18,1.81-7.16-4.27-14.48-1.21-1.46-2.22-5.07-1.9-6.71l1.16-4.42c7.03.76,14.07,2.19,20.93,4.1Z" style="fill:#d4d7fc;"/><path d="M587.99,577.14l-14.22,7.77c-14.66,8.01-30.88,11.89-47.77,12.4l-26.16.35c-.06-.02,1.82-.62,2.48-.62l15.64-.11-.42-.83-8.85-.44,5.71-4.62,2.83-3.94.99-1.68c.3-.52-.89-1.7-1.54-2.18-4.44-3.28,1.42-7.71.23-17.14-.49-3.91,1.38-6.22,4.64-7.57l.82-.34,5.08-1.65,4.64-1.28,8.51-.66,6.35-1.82,5.67-2.26c.99-.4,3.15-2.14,3.97-2.93l6.56-6.29c.97-.93,2.97-3.52,3.46-4.77l3.36-8.48-.83-3.16c1.09-.86,2.52-3.12,3.01-4.55l.74-1.65.44,3.04c4.12,7.32.84,13.6-1.2,19.51l-3.05,8.86c-.53,1.55.69,5.08,1.41,7.09l-2.83,4.31-3.79,5.76,5.42.77c1.66.23,4.63,2.67,6.21,3.24,2.19.79,6.56,1.31,8.3,2.5l4.18,3.38Z" style="fill:#b6a9fa;"/><path d="M124.27,472.92l-4.88,8.94-1.37-.95c-6.16,4.04-5.14,11.93-12.97,17.38l-3.12,5.44c-.94,1.64-1.87,4.93-3.1,5.9l-5.7,4.51-4.42,3.94-4.52-1.54c-2.85-.97-6.95-.49-9.65.75l-.75,4.56-5.96.78-4.74.5-7.44,3.7c-1.15.57-4.28,1.03-5.47.83l-5.02-.84-6.19-1.04-3.37-.8c-4.67-10.75-9.74-23.87-11.15-36.19l-.99-8.6,1.22-3.39.39,7.02,3.61-.72,3.03,2.12c1.68,2.3,3.59,3.89,5.95,5.08l6.05,3.05,2.91,1.27c4.04,1.76,11.79,2.62,11.36,2.69l4.08-.67c2.9-5.69,10.65-10.38,14.91-7.86l5.24-2.35,5.29-2.13c1.43-.58,4.67,0,6.56.54l2.45-1.7c1.02-.7,3.73-1.11,5.29-1.46l9.15-2.08c1.35-.31,4.6-1.15,5.68-1.95l6.7-4.97c.3-.03.75-.08.93.24Z" style="fill:#47d3de;"/><path d="M257.71,166.22l1.43-.52-.65,5.56c-2.34,1.89-3.02,4.36-2.48,6.74l-5.03-1.21-3.91,1.42-7.22-.14c-1.36-.03-3.77-1.04-5.25-1.76l-5.13-.14c-.32,1.09-.69,2.72-1.22,3.04l-4.39,2.68-4.94,3.46c-1.16.82-4.34.61-6.15.04l-4.23,2.42-2.74-.75c-1.59.9-5.01,3.22-6.92,3.59l-7.08,1.35c-5.1.97-3.71,3.42-9.3,2.53-3.7-.59-5.68,2.83-8.62,1.31-.61-1.81-.83-2.96-1.46-2.94l-2.41.06-8.9,1.01,7.93-13.84,9.09-15.87,4.8-8.41,4.31-.12,2.02-6.71,2.85,1.73,2.02,1.33c2.03-.95,3.92-.98,4.62-.16,4.47,5.2-.09,8.49,1.75,10.84.71.91,2.89,2.09,3.73,2.35l2.81-4.88c.27-.47,1.51-1.49,1.92-1.83s-1.89-.95-2.43-1.06l-4.69-3.46.41-5.18,3.82,4.35,3.67,2.34c.96.61,2.71,1.63,3.67,1.8s2.18-1.99,2.83-3.57c-.18-2.33.62-2.17,1.06-.28l2.17,2.56,2.46-2.04.11-7.04c3.51-1.15,6.93.08,9.11,2.81,3.14.29,4.38,1.98,5.47,4.71l2.21,5.29,7.57,2.72.7,3.46,6.1.89,4.46-.44Z" style="fill:#a5eff4;"/><path d="M637.5,518.12l-3.48-2.35c-2.14-1.59-9.05-4.03-11.35-3.02-3.04-1.46-6.78-2.67-10.78-3.05l-5.43-4.27-4.98-3.9c-6.66-1.83-4.42-5.66-13.07-8.89l-5.28-1.97-6.37-.34-5.7-.66-6.8-2.02-.76,5.6-4.66-8.24,2.99-3.34c1.66-2.2,5.92.9,7.83-.17,1.69-.94,5.42-3.12,7.37-3.56l5.69-1.28,6.27-.76,4.67-1.15c3.69-.9,9.19,4.85,12.99,4.01,3.41-.76,6.08-1.14,9.46-.92l2.72-2.95,3.83,2.82.89-2,7.63,1.47c1.41-1.09,3.96-4.13,4.25-5.6-.41-2.65-.57-5.56.18-7.73l2.59-7.47,2.19-5.07,2.31-6.19,1.03-3.85c5.8,24.56,3.54,53.78-6.25,76.84Z" style="fill:#c9b4fb;"/><path d="M85.03,460.32l5.19.41c4.72.37,5.15,4.5,7.9,4.04l-1.44,2.19,1.92,4.49-8.71,5.36c-1.16,2.43-3.08,4.82-5.3,6.69l-2.36,2.92-5.24,2.35c-4.26-2.52-12,2.17-14.91,7.86l-4.08.67c.43-.07-7.32-.93-11.36-2.69l-2.91-1.27-6.05-3.05c-2.36-1.19-4.27-2.78-5.95-5.08l-3.03-2.12-3.61.72-.39-7.02-1.22,3.39c-1.26-10.97-.85-22.52,1.69-33.38l.88,3.94,12.38,2.74,5.58,1.83,4.09-.39,5.47,1.58,7.26,1.84,6.29,1.05c1.8.3,5.29-.39,7.01-.79l4.81.75,6.09.96Z" style="fill:#4dd7e0;"/><path d="M276.91,41.51c4.09,4.81-6.09,8.78-3.52,18.7l2.31,8.93,2.12,8.16.92,5.58.82,6.37c.37,2.89,1.69,5.92,2.3,8.98l1.35,6.74,1.08,5.71,2.83,9.33c.36,1.2,1.56,3.52,2.56,4.16,6.82,4.34,6.13,8.7,9.27,10.74l4.29,2.8,3.95.62-3.22,6.56c-.31.62-1.63,2.01-1.84,2.13-2.58.54-4.61-.63-6.73-2.36l-6.14-3.86c-2.53-1.6-4.25-3.57-6.15-6.02l-5.51-7.07c-5.7-.27-5.3-6.75-12.96-9.5l-2.27-4.63c-.52-1.06-2.31-2.88-3.09-3.56l-3.99-5.43c-.72-.98-.51-4.18-.77-5.51l-2.64-13.13-.59-7.04c-.17-2.02-1.69-6.54-.76-8.31,2.19-4.18,3.28-8.77,1.33-12.99l7.7-6.02c5.51-4.31,11.45-7.28,17.35-10.07Z" style="fill:#b9e7f7;"/><path d="M278.04,191.21l-.94,1.72-1.48,2.67-4.16,7.49-2.49-1.76c-8.69,1.35-12.51,7.37-16.82,7.89l-9.09,1.09-8.03.81-7.05.6-7.06,1.5-4.92.54c-1.01.11-3.09,1.38-3.98,1.42l-6.16.28-5.75.37-5.24,1.16c-3.18.7-3.39,4.31-17.79,5.13-1.43.08-4.23,2.48-5.29,3.27l-4.11,1.67c-1.49.6-4.35,1.11-5.55.35l-3.97-2.51c-1.01-.64-3.7-1.5-4.48-2.39l-3.34-3.79-2.58-1.8,3.36-5.78,8.36-14.35,2.1,3.44c.18.28,1.88-1.33,2.12-1.1l1.78,1.62c.78.71,3.21,1.49,3.76,1.42l1.62-1.9c1.24-1.45,4.72,2.38,6.36,1.48l3.52-1.93,3.95,2.52c.44.28,1.45,1.07,1.81.86l2.42-1.4,5.17-1.92c4.24-3.69,5.49-.42,10.63-2.12l7.73-2.55c4.25-1.4,4.7.9,7.47-.1,1.52-.55,4.46-1.52,5.94-1.62l6.33-.44c1.93-.13,4.61.47,6.48,1.22l6.37,2.57c1.15.46,4.52.13,5.76-.09,5.39-2.99,8.45-5.32,13.58-1.58,2.86-.64,6.63-3.35,8.92-5.87l5.09-.55-.37,2.45Z" style="fill:#99edf1;"/><path d="M637.5,518.12c-4.69,11.04-10.51,21.61-18.14,30.93-.02-.49-.94-1.68-1.32-1.99l-2.79-2.24-5.34-3.92c-1.17-.86-4.02-1.98-5.53-2.52l-12.08-7.75c-1.93-5.59-9.45-3.63-13.35-12.67-.59-1.38-3.11-2.87-4.52-3.4l-1.54-2.88-6.38-12.94-2.99-5.48.76-5.6,6.8,2.02,5.7.66,6.37.34,5.28,1.97c8.65,3.22,6.41,7.05,13.07,8.89l4.98,3.9,5.43,4.27c3.99.38,7.74,1.6,10.78,3.05,2.3-1.01,9.21,1.43,11.35,3.02l3.48,2.35Z" style="fill:#c5b1fb;"/><path d="M120.02,420.16l3.09,5.69c.57.9,1.07,3.14,1.01,4.42l-3.93,3.71-5.18,3.33c-1.21.78-4.32,1.67-5.78,1.59l-7.52-.43c-1.84-.1-3.84,4.32-4.26,6.12l-1.71,7.21c-.34,1.46-2.79,4.09-4.2,4.59l-4.49,1.58c-.35.12-1.73.19-1.8.56l-.24,1.79-6.09-.96-4.81-.75c-1.72.4-5.21,1.09-7.01.79l-6.29-1.05-7.26-1.84-5.47-1.58-4.09.39-5.58-1.83-12.38-2.74-.88-3.94,2.79-11.93,1.74-.79,3.62,3.89c2.06,2.21,6.5-.8,11.37.27l5.08,1.11c4.46.98,8.22.94,12.2-1.83l3.93-.23,6.25-4.05,4.23-1.82,9.85-3.88,3.48-1.29c3.92-.74,7.66-2.69,11.27-5.16l8.09-.91,5.75.13c1.99.04,3.97.36,5.18-.17Z" style="fill:#53dde2;"/><path d="M262.49,219.1l-7.99,14.24-1.29,1.35-7.22,1.51c-2.32.62-5.28,2.73-7.39,4.35-5.76,4.41-9.25,2.67-15.96,4.93l-8.4,2.82-2.99-1.65-4.4,2.34c-1.57.83-5.16,2.47-6.9,2.7l-8.02,1.08c-2.58.35-5.14,1.23-7.28,2.67l-4.9,3.31c-4.35,2.93-8.53,4.69-13.37,6.93l-5.07,2.35c-1.19,1.46-2.65,2.91-3.75,3.36l-6.42,2.64c-2.97.26-4.88.76-7.21,1.72l-6.6,2.72-3.29,1.82c-.88.49-3.61,1.25-4.23.5l-2.58-3.08c-.61-.73-2.11-2.52-2.92-2.86l-4.36-1.81-4.31-.29,4.43-7.76,3.11-1.96,6.92-5.09c2.29-1.68,8.5-2.82,9.67-2.64l6.41.98c2.69.41,6-.47,8.7-1.24l9.33-2.68c2.33-.67,5.25-1.5,7.1-2.75l6.23-4.23,4.57-2.49c2.16-1.18,6.43-2.33,8.03-3.71l4.94-4.25c3.21-2.76,5.26.49,7.82,1.07l4.29.98c5.59,1.28,12.18-.84,17.29-3.52l3.98-2.08c2.63.9,4.44.35,6.86-.03l6.08-.95,9.14-1.47c.9-.14,2.53-2.9,2.88-3.8,1.75-4.54,7.43-8.52,9.08-6.03Z" style="fill:#8bedef;"/><path d="M238.97,122.41c.22,1.82.31,5.7,1.16,7.31l3.23,6.1c-.55,3.96.51,7.28,3.11,9.97l-.75,7.28,7.3,7.72,3.86,4.34.83,1.09-4.46.44-6.1-.89-.7-3.46-7.57-2.72-2.21-5.29c-1.09-2.72-2.33-4.42-5.47-4.71-2.18-2.72-5.6-3.96-9.11-2.81l-.11,7.04-2.46,2.04-2.17-2.56c-.44-1.89-1.24-2.05-1.06.28-.65,1.58-1.87,3.74-2.83,3.57s-2.72-1.19-3.67-1.8l-3.67-2.34-3.82-4.35-.41,5.18,4.69,3.46c.54.11,2.83.72,2.43,1.06s-1.65,1.37-1.92,1.83l-2.81,4.88c-.84-.26-3.02-1.43-3.73-2.35-1.84-2.36,2.72-5.64-1.75-10.84-.7-.82-2.59-.79-4.62.16l-2.02-1.33-2.85-1.73-2.02,6.71-4.31.12,23.68-40.95,6.01,2.08,2.55-2.4,3.43-.09,4.67-.13,2.99.1,4.11,2.62c1.11.71,3.56.78,6.1.8.75.63,2.32,3.24,2.48,4.56Z" style="fill:#a9eff5;"/><path d="M210.04,269.79c-.16.9-2.3,2.51-3.4,2.91l-9.6,3.51c-.91.33-2.57,1.1-3.18,1.54l-4.2,2.99-3.84,10.81c-3.27.66-4.77,2.48-5.97,5.42l-8.45,5.5-8.99,5.02-6.22,1.67-5.51,1.48-1.2,3.64-4.25,2.41c-1.61,1.39-3.2,3.4-3.5,5.23-2.41,1.21-5.5.48-11,3.59l-7.88,4.47c-1.76,1-5.77,2.57-7.86,2.88l-10.45,1.56-7.43,1.05c-1.5.21-5.32.95-6.23-.14l-4.14-5-2.68-2.73,9.5-16.61,2.17,2.3,1.37,5.15c1.63-.15,4.94-.47,6.19-1.08l4.05-1.98c3.41-1.67,6.59-2.67,10.18-3.89l5.79-1.95,5.22-2.09,10.2-4.08,3.94-2.89c6.15-4.5,12.02-3.08,12.22-4.02l.43-2.13c.85-1.23,3.98-3.83,5.66-4.04l11.38-1.4c1.51-1.96,3.17-3.97,4.45-4.5,2.61-.72,3.72-1.37,5.59-3.17l7.15-3.56c.95-.48,2.94-2.55,3.66-3.19l8.24-1.8,4.13-1.13,4.43-1.74Z" style="fill:#7ae9eb;"/><path d="M321.73,28.9l5.28-.02c.16.78.08,3.42-.47,4.06-5.07,5.99,2.96,12.59,3.25,15.18l.74,6.61c.36,3.2,1.28,5.99,1.17,9.34l1.46,7.66,1.2,5.36c.67,2.99,4.25,7.17,5.1,9.95l3.13,10.19,1.78,7.28,1.46,4.72-1.82-1.34c-4.06-2.83-9.37-3.97-14.01-1.98l-4.23,1.81-2.53-1.45c-1.55-.75-3.24-3.6-4.15-5.42l-3.3-6.59-1.8-3.55c-.77-1.52-2.34-3.39-3.78-5.13v-6.61s.26-9.19.26-9.19l-.08-5.87-.92-4.21-2.6-12.44-1.5-5.51-1.91-4.96-2.42-4.3c6.55-2.2,13.82-3.57,20.69-3.59Z" style="fill:#c7ddfa;"/><path d="M253.21,234.68l-.68,1.82c-.12-.34-1.6.09-1.91.26l-4.56,2.42-5.75,3.27-6.85,4.64c-.3.2-1.32,2.19-1.68,2.14l-6.44-.92-7.36,3.83c-3.51,1.83-5.26-.32-9.18,2.7-1.51,1.16-3.77,1.96-5.58,2.03l-6.21.23c-1.31.05-4.19,1.63-5.37,2.42l-6.11,4.08c-4.43,2.96-9.37,6-12.58,10.17l-3.59,4.66c-2.21,2.87-5.09,4.7-8.93,5.16s-4.15,3.04-11.39,2.17-4.98,9.61-8.55,10.84l-6.41,2.22-6.44,1.77-7.58,2.49-5.29,1.6-6.14,2.35c-1.07.41-3.24.5-4.11-.14-2.63-1.95-.8-6.1-2.37-6.46l-2.29-.39,6.28-10.88,9.51-16.41,4.31.29,4.36,1.81c.81.34,2.31,2.13,2.92,2.86l2.58,3.08c.63.75,3.36-.01,4.23-.5l3.29-1.82,6.6-2.72c2.33-.96,4.24-1.46,7.21-1.72l6.42-2.64c1.1-.45,2.55-1.9,3.75-3.36l5.07-2.35c4.84-2.25,9.02-4,13.37-6.93l4.9-3.31c2.14-1.44,4.7-2.32,7.28-2.67l8.02-1.08c1.74-.23,5.34-1.87,6.9-2.7l4.4-2.34,2.99,1.65,8.4-2.82c6.71-2.26,10.2-.52,15.96-4.93,2.11-1.62,5.08-3.73,7.39-4.35l7.22-1.51Z" style="fill:#84eaec;"/><path d="M247.92,246.49l-.75-.42-.94-.53-3.91,4.99-4.3,5.41c-4.01,1.95-9.91,3.36-13.02,5.84l-5.29,4.21c-1.36,1.09-3.58,1.95-5.46,2.41l-4.22,1.4-4.43,1.74-4.13,1.13-8.24,1.8c-.72.64-2.71,2.72-3.66,3.19l-7.15,3.56c-1.88,1.79-2.98,2.45-5.59,3.17-1.29.53-2.95,2.54-4.45,4.5l-11.38,1.4c-1.69.21-4.82,2.81-5.66,4.04l-.43,2.13c-.19.95-6.07-.48-12.22,4.02l-3.94,2.89-10.2,4.08-5.22,2.09-5.79,1.95c-3.59,1.21-6.77,2.22-10.18,3.89l-4.05,1.98c-1.26.62-4.56.93-6.19,1.08l-1.37-5.15-2.17-2.3,6.27-10.95,2.29.39c1.57.35-.25,4.51,2.37,6.46.87.65,3.04.55,4.11.14l6.14-2.35,5.29-1.6,7.58-2.49,6.44-1.77,6.41-2.22c3.57-1.24,1.64-11.68,8.55-10.84s7.61-1.72,11.39-2.17,6.73-2.29,8.93-5.16l3.59-4.66c3.21-4.17,8.15-7.21,12.58-10.17l6.11-4.08c1.18-.79,4.05-2.37,5.37-2.42l6.21-.23c1.81-.07,4.07-.86,5.58-2.03,3.92-3.02,5.67-.87,9.18-2.7l7.36-3.83,6.44.92c.36.05,1.38-1.93,1.68-2.14l6.85-4.64,5.75-3.27,4.56-2.42c.31-.16,1.79-.59,1.91-.26l-2.19,4.74-2.42,5.24Z" style="fill:#81ecee;"/><path d="M251.86,57.61c1.95,4.22.86,8.81-1.33,12.99-.93,1.77.6,6.29.76,8.31l.59,7.04,2.64,13.13c.27,1.34.06,4.54.77,5.51l3.99,5.43-3.28.74.07,6.14c.02,1.47-1.63,3.64-2.95,5.45l-.1,5.43-2.67.58-7.99-4.62-3.4-1.33c-.16-1.32-1.73-3.93-2.48-4.56-2.54-.02-4.99-.09-6.1-.8l-4.11-2.62-2.99-.1-4.67.13-3.43.09-2.55,2.4-6.01-2.08,1.92-3.3,6.88-11.16,3.63-5.36,12.11-16.92c2.98-4.16,6.8-7.91,10.45-11.45l6.74-6.54,3.49-2.55Z" style="fill:#afeff7;"/><path d="M619.36,549.05c-5.16,6.3-10.47,12.92-17.39,17.94l-13.99,10.15-4.18-3.38c-1.74-1.19-6.11-1.71-8.3-2.5-1.58-.57-4.56-3.01-6.21-3.24l-5.42-.77,3.79-5.76,2.83-4.31c-.73-2.01-1.95-5.54-1.41-7.09l3.05-8.86c2.04-5.91,5.32-12.2,1.2-19.51l-.44-3.04v-7s1.53,2.88,1.53,2.88c1.41.53,3.93,2.03,4.52,3.4,3.9,9.04,11.42,7.08,13.35,12.67l12.08,7.75c1.51.54,4.36,1.66,5.53,2.52l5.34,3.92,2.79,2.24c.38.3,1.3,1.5,1.32,1.99Z" style="fill:#beacfb;"/><path d="M271.45,203.1c-.2.35-.83,1.08-1.22,1.18l-4.88,1.24c-1.1.28-3.7,1.65-4.54,2.41l-6.81,6.15c-1.08.98-4.62,2.3-6.09,2.53l-6.09.97-5.32.85c-.53.08-2.08,2.09-2.62,1.98l-6.87-1.43-5.03,2.24-5.9,2.16-4.95.52-9.23.4-5.1.52c-1.05.11-3.57.8-4.12,1.68l-2.43,3.93-4.73,5c-1.69,1.79-8.37,1.39-16.76,8.4-3.92,3.28-6.83-1.67-9.45,1.35-3.26,3.77-3.5.35-9.13,1.89l-5.15,1.41c-1.31.36-4.48.97-5.83.8l-5.39-.68-4.2.03,2.87-5.09,15.3-26.6,2.58,1.8,3.34,3.79c.78.88,3.47,1.75,4.48,2.39l3.97,2.51c1.2.76,4.06.25,5.55-.35l4.11-1.67c1.06-.78,3.86-3.19,5.29-3.27,14.39-.81,14.6-4.42,17.79-5.13l5.24-1.16,5.75-.37,6.16-.28c.89-.04,2.97-1.31,3.98-1.42l4.92-.54,7.06-1.5,7.05-.6,8.03-.81,9.09-1.09c4.31-.52,8.13-6.54,16.82-7.89l2.49,1.76Z" style="fill:#93edef;"/><path d="M522.37,558.18l-.82.34c-3.26,1.34-5.13,3.65-4.64,7.57,1.19,9.44-4.67,13.87-.23,17.14.64.47,1.84,1.66,1.54,2.18l-.99,1.68-2.83,3.94-5.71,4.62,8.85.44.42.83-15.64.11c-.65,0-2.54.6-2.48.62l-6.99.33-149.85.02.9-1.02h20.11s10.99.01,10.99.01h17s28,0,28,0h19.05s20.26-.02,20.26-.02h13.69s22.12-.45,22.12-.45l-19.92-.79c3.87-4.9-.75-7.53.82-14.5l1.19-5.3,3.14-5.12,1.5-5.18-.54-2.85,6.69-2.71c2.92-1.4,5.63-2.45,8.95-2.32,7.14.29,9.79-1.74,13.9-1.12l6.72,1.01,4.79.53Z" style="fill:#b1adf9;"/><path d="M285.76,37.63l1.48,6.07,2.21,7.08.42,6.31,2.92,9.13,2.28,5.96c2.02,5.27-1.7,7.91.72,16.77l3.33,12.21,1.34,4.6,5.15,10.43,3.74,9.33,3.97.52-.26,2.29-4.27,7.65-1.6,2.35-3.95-.62-4.29-2.8c-3.14-2.05-2.45-6.4-9.27-10.74-1-.64-2.19-2.96-2.56-4.16l-2.83-9.33-1.08-5.71-1.35-6.74c-.61-3.06-1.93-6.09-2.3-8.98l-.82-6.37-.92-5.58-2.12-8.16-2.31-8.93c-2.57-9.92,7.61-13.89,3.52-18.7l6.46-3.06,2.39-.82Z" style="fill:#bee4f8;"/><path d="M234.28,269.13l-.87,2.42-2.87,1.02c-1.63.94-5.34,2.95-6.22,4.52l-4.1,7.33c-2.01,1.18-6.44,2.33-8.21,3.54l-6.59,4.5-4.54,3.4-5.35,3.76-4.52,4.29-5.67,6.56c-2.3,2.66-4.74,2.24-8.81,7l-6.49,7.57-5.67,5.13-3.85,4.2-2.26,2.87c-1.73.54-4.91.89-7.12,1.05l-7.37,1.72-3.51.71c-2.23.45-4.6-.07-6.33-1.72l-5.95-.32-15.17,3.34-6.99,1.75-7.86,2.15-1.07-4.03c-.29-1.11-2.48-3.04-3.6-3.27l-5.96-1.2c-1.38-.28-4.13-.22-5.53-.01l-3.66.48,1.96-2.98c.71-1.08,2.09-2.87,2.51-3.87l1.47-3.46,2.68,2.73,4.14,5c.91,1.09,4.72.35,6.23.14l7.43-1.05,10.45-1.56c2.1-.31,6.1-1.88,7.86-2.88l7.88-4.47c5.5-3.12,8.59-2.39,11-3.59l2.73-1.36,7.19-1.56c1.38-1.53,3.39-3.71,4.65-4.47l5.97-3.62,4.89.15c2.43.07,6.78-2.59,8.83-3.94l11.54-7.61c3.02-1.99,3.07-6.05,8.23-9.67l10.44-2.58,5.93-1.87c1.02-.32,4.17-.73,4.77-1.63l6.73-10.12c.86-1.29,4.39-2.7,5.82-3.2l4.82-1.31Z" style="fill:#73e9ea;"/><path d="M301.04,32.49l2.42,4.3,1.91,4.96,1.5,5.51,2.6,12.44.92,4.21.08,5.87-.25,9.19v6.61c1.44,1.73,3,3.61,3.78,5.13l1.8,3.55,3.3,6.59c.91,1.82,2.61,4.67,4.15,5.42l2.53,1.45c-3.02,4-5.96,8.59-8.66,13.38l-4.06,7.2.26-2.29-3.97-.52-3.74-9.33-5.15-10.43-1.34-4.6-3.33-12.21c-2.42-8.86,1.3-11.5-.72-16.77l-2.28-5.96-2.92-9.13-.42-6.31-2.21-7.08-1.48-6.07,15.28-5.14Z" style="fill:#c2e0f9;"/><path d="M109.06,406.74l-1.55,4.6-2.76,1.37-3.96,6.17c-3.68,5.74-12.13,2.5-11.07,7.37l-3.48,1.29-9.85,3.88-4.23,1.82-6.25,4.05-3.93.23c-3.99,2.77-7.74,2.81-12.2,1.83l-5.08-1.11c-4.87-1.07-9.31,1.95-11.37-.27l-3.62-3.89-1.74.79c1.52-6.49,4.1-12.86,6.99-18.87l2.97,1.95,4.08,2.13,4.78-3.19,6.07-4.07,5.57-2.63c.84-.4,2.78.04,4.16.33,9.44,2.37,15.78-2.67,23.37.76,1.97.89,5.68,1.23,7.5.5l5.72-2.32,6.02-.99,3.86-1.73Z" style="fill:#5cdde3;"/><path d="M61.9,391.02c1.5,1.59,3.54,2.17,5.92,2.18l9.09.04,5.11-.33,5.86-.75c2.37-.3,4.33,0,6.71,1.78l5.19-.97,2.38-3.77,3.84,4.86c.58.73,3.05,1.55,4.06,1.46l8.78-.78,3.31-.29,6.17-1.01,4.09-.36-4.02,2.3-13.13,6.87-3.89,2.32c-.65.39-1.91,1.71-2.3,2.19l-3.86,1.73-6.02.99-5.72,2.32c-1.82.73-5.52.39-7.5-.5-7.59-3.42-13.93,1.61-23.37-.76-1.38-.29-3.31-.73-4.16-.33l-5.57,2.63-6.07,4.07-4.78,3.19-4.08-2.13-2.97-1.95,5.83-12.11,10.06-18,6.53,2.72,4.52,2.41Z" style="fill:#60e0e5;"/><path d="M143.77,340.02l.24,4.73-10.94,2.77-7.58,3.24c-2.09.89-5.78,1.34-8.33,1.46-4.25,1.08-7.46,4.11-10.21,7.51l-4.59,5.68c-.83,1.02-3.94,2.77-5.26,2.72l-8.87-.38-8.37-.48-6.41,1.13c-1.51.27-4.37,2.19-5.88,3.13-3.03,1.88-8.08-1.55-8.75,3.42l-2.18.73,7.59-13.48,13.92-24.3,3.66-.48c1.4-.21,4.15-.27,5.53.01l5.96,1.2c1.12.22,3.3,2.16,3.6,3.27l1.07,4.03,7.86-2.15,6.99-1.75,15.17-3.34,5.95.32c1.73,1.65,4.1,2.17,6.33,1.72l3.51-.71Z" style="fill:#71e5e8;"/><path d="M262.49,219.1c-1.66-2.49-7.33,1.48-9.08,6.03-.35.9-1.98,3.66-2.88,3.8l-9.14,1.47-6.08.95c-2.43.38-4.23.93-6.86.03l-3.98,2.08c-5.11,2.67-11.7,4.8-17.29,3.52l-4.29-.98c-2.56-.59-4.6-3.83-7.82-1.07l-4.94,4.25c-1.6,1.38-5.87,2.53-8.03,3.71l-4.57,2.49-6.23,4.23c-1.85,1.26-4.77,2.09-7.1,2.75l-9.33,2.68c-2.7.78-6.02,1.65-8.7,1.24l-6.41-.98c-1.16-.18-7.38.96-9.67,2.64l-6.92,5.09-3.11,1.96,9.52-16.36,4.2-.03,5.39.68c1.34.17,4.52-.44,5.83-.8l5.15-1.41c5.63-1.54,5.87,1.87,9.13-1.89,2.62-3.02,5.53,1.93,9.45-1.35,8.39-7.01,15.06-6.61,16.76-8.4l4.73-5,2.43-3.93c.55-.89,3.07-1.57,4.12-1.68l5.1-.52,9.23-.4,4.95-.52,5.9-2.16,5.03-2.24,6.87,1.43c.54.11,2.09-1.89,2.62-1.98l5.32-.85,6.09-.97c1.47-.23,5.01-1.56,6.09-2.53l6.81-6.15c.84-.76,3.45-2.14,4.54-2.41l4.88-1.24c.27-.14-.25,1.49-.47,1.87l-7.27,12.96Z" style="fill:#90ecf0;"/><path d="M256.01,178l5.77.38c3.06.2,7.28,2.38,9.99,2.24,3.2-.17,6.15-.34,8.38.9l2.3,1.6-4.41,8.09.37-2.45-5.09.55c-2.29,2.52-6.07,5.23-8.92,5.87-5.13-3.74-8.19-1.41-13.58,1.58-1.25.22-4.61.55-5.76.09l-6.37-2.57c-1.87-.75-4.55-1.36-6.48-1.22l-6.33.44c-1.49.1-4.43,1.07-5.94,1.62-2.77,1-3.22-1.3-7.47.1l-7.73,2.55c-5.14,1.69-6.39-1.57-10.63,2.12l-5.17,1.92-2.42,1.4c-.37.21-1.38-.58-1.81-.86l-3.95-2.52-3.52,1.93c-1.64.9-5.12-2.93-6.36-1.48l-1.62,1.9c-.55.07-2.99-.71-3.76-1.42l-1.78-1.62c-.25-.22-1.94,1.38-2.12,1.1l-2.1-3.44,1.65-2.85,8.9-1.01,2.41-.06c.63-.02.85,1.13,1.46,2.94,2.94,1.52,4.91-1.9,8.62-1.31,5.59.9,4.2-1.55,9.3-2.53l7.08-1.35c1.91-.36,5.33-2.68,6.92-3.59l2.74.75,4.23-2.42c1.81.57,4.99.78,6.15-.04l4.94-3.46,4.39-2.68c.52-.32.9-1.95,1.22-3.04l5.13.14c1.48.72,3.89,1.73,5.25,1.76l7.22.14,3.91-1.42,5.03,1.21Z" style="fill:#a0ebf3;"/><path d="M169.11,341.09c-.2.43-1.74,2.16-2.51,2.48l-5.1,2.13c-.98.41-2.72,2.3-3.73,3.06-7.14,5.38-13.02,5.44-14.73,11.04-.33.47-1.66,1.93-2.15,2.24l-4.57,2.87-6.57-.98c-1.88-.28-5.12.74-7.17,1.42l-7.44,2.38c-4.02,1.28-5.73,5.6-9.44,6.91l-14.66,5.16c-.86.3-3.46-.53-4.26-.5l-5.61.24-9.04.96c-1.4.15-4.61.87-6.03.7l-6.09-.72-5.83-.49,2.45-4.32,2.18-.73c.67-4.97,5.72-1.54,8.75-3.42,1.51-.94,4.37-2.86,5.88-3.13l6.41-1.13,8.37.48,8.87.38c1.32.06,4.43-1.69,5.26-2.72l4.59-5.68c2.74-3.39,5.95-6.42,10.21-7.51,2.55-.12,6.25-.57,8.33-1.46l7.58-3.24,10.94-2.77-.24-4.73,7.37-1.72c2.22-.16,5.4-.5,7.12-1.05.78-.24,2.18-1.28,3.31-2.02.85-.56,2.16,1.49,2.48,2.39l1.6,4.52,3.46-1.05Z" style="fill:#6ce6e8;"/><path d="M127.3,370.25l-3.37,1.5-4.54,1.75c-1.96.75-3.96,2.67-5.15,4.76-2.39,4.19-6.6,8.14-10.16,8.5l-10.14,1.03-4.14.93-11.92,2.78-5.94-2.2c-1.18-.44-4.22.37-5.27,1.06l-4.76.67-4.52-2.41-6.53-2.72,3.33-5.88,5.83.49,6.09.72c1.42.17,4.63-.55,6.03-.7l9.04-.96,5.61-.24c.79-.03,3.4.8,4.26.5l14.66-5.16c3.71-1.31,5.42-5.62,9.44-6.91l-.88,3.8,5.21-3.15c.72-.44,2.18-1.66,2.77-1.21l2.12,1.6,2.93,1.47Z" style="fill:#67e2e6;"/><path d="M330.26,524.89l-1.73,5.62-.86,6.5.06,8.09c0,1.19,1.52,3.78,2.28,4.88,4.76,6.88,2.07,10.1,4.65,16.29l4.05.41c.81.08.89,2.67,1.05,3.53l1.91,10.04c1,5.27,5.64,12.76,8.12,13.83,3.86,1.68,8.16,1.96,12.24,2.01l1.98.91h-20.11s-.9,1.01-.9,1.01h-196.81s-1.36-.91-1.36-.91l41.21-.11h43.96s34,.02,34,.02l22.06-.04,23.93.03h14.99s18.16-.02,18.16-.02l-1.76-1.33c-.55-.91-2.56-3.42-3.76-4.05l-7.75-3.37c-1.09-.48-2.71-2.79-3.26-3.74l-2.64-4.59-4.35-5.82-2.07-8.61-.52-5.63-2.93-9.68-1.81-5.94c-.56-1.84-.43-4.28.38-6.75l-1.92-4.88,3.7-8.41c.37-.83,2.19-1.93,3.2-2.71l1.32-2.49,2.26,2.65,6.05,2.06,2.98,1.2Z" style="fill:#89c1ee;"/><path d="M176.03,550.25c-3.47,2.33-3.46,6.2-6.84,6.63-4.08.52-6.58,1.84-8.96,4.2l-3.72,3.67c-1.26,1.25-1.41,5.15-.98,7.09l2.08,9.37,2.02,6.29c.49,1.51,4.65,2.35,6.27,2.59l6.13,3.94h5.95c.67,0,2.12,1.58,1.87,1.96h-22.97c-2.26-.02-5.22-1.43-7.29-2.6l-6.36-.6-7.52-2.63c-9.28-3.25-5.66-7.07-9.83-11.88-.68-.78-3.73-1.37-4.78-1.74l-7.93-2.75c-2.79-.97-5-4.61-5.32-7.23-.18-1.48,2.3-3.39,6.03-4.67l8.64-2.97,7.81-2.38,4.8-2.45c.74-.38,2.8-.92,3.73-1.11l3.35-.69c1.99-.16,5.97-.32,7.85-1.08l5.86-2.35c.71-.28,2.5-.57,3.16-.52l4.05.28,8.98.61,3.93,1.01Z" style="fill:#49cade;"/><path d="M195.04,551.64c.02.6-.21,2.35-.58,2.83l-3.32,4.32-2.69,4.05c-.76,1.14-1.18,2.74-.98,4.53l-.89,3.08c-2.99,1.36-4.72,3.22-6.25,6.01l-2.73,4.96,5.64,3.63c1.49.96,4.07,4.05,5.76,4.65l5.27,1.85,7.07,4.09,15.73.39,10.62.11,1.71.06c.31.01.48.29.6.81h-43.96c-.07-.14-1.5-.99-1.97-.99h-4.22c.25-.38-1.21-1.96-1.87-1.96h-5.95s-6.13-3.95-6.13-3.95c-1.62-.24-5.79-1.07-6.27-2.59l-2.02-6.29-2.08-9.37c-.43-1.94-.28-5.84.98-7.09l3.72-3.67c2.38-2.36,4.87-3.68,8.96-4.2,3.38-.43,3.37-4.3,6.84-6.63l4.36-2.93,3.28-.47,12.47-7.59c-.06,1.86-.42,3.64-1.28,5.99l.18,6.38Z" style="fill:#4fcbe1;"/><path d="M163.38,514.43l-23.14,4.99-3.17-.1.72-2.65c.33-1.21-7.81-3.75-10.45-9.99l-2.12-5.02c-1.8-4.26-3.25-8.59-1.79-13.24.83-2.64.96-4.63-.49-8.12l-3.34,3.39c1.12.41-.54-.2-1.03-.47l.82-1.35,4.88-8.94,6.46-11.92,1.79.29c.65.08,4.03,1.53,4.08,2.83l.25,6.57,3.96,7.45c.48.91,1.66,2.96,2.36,3.66l6.8,6.87,2.38,4.97,2.53,3.65c1.24,1.78,2.27,4.31,3.14,6.82l4.35,5.28c.41.5.99,2.5.5,2.87l-2.14,1.61,2.66.56Z" style="fill:#d2f4f6;"/><path d="M140.24,519.42l-20.15,4.02c-3.21.64-8.23,1.38-10.7.31l-5.01-2.29-1.5-4.27c.23-3.66,1.27-7.59,3.14-11.01l5.37-9.84,3.93-7.19,3.26-5.94c.49.27,2.16.88,1.03.47l3.34-3.39c1.45,3.49,1.32,5.48.49,8.12-1.47,4.66-.02,8.98,1.79,13.24l2.12,5.02c2.64,6.24,10.78,8.78,10.45,9.99l-.72,2.65,3.17.1Z" style="fill:#ccf4f5;"/><path d="M102.88,517.18l1.5,4.27c-1.37,2.06.6,6.07,2.49,7.92l9,8.77c1.53,1.49,5.92,3.83,8,3.76l8-.28,6.9-.37c1.63-.09,5.42-.24,7.02-.73l7.95-2.42c.95-.29,3.42-1.11,4.37-.92l7.14,1.72-4.65,4.88-1.53,4.56c-.66-.05-2.45.24-3.16.52l-5.86,2.35c-1.88.75-5.86.92-7.85,1.08-5.16-1.91-8.31.03-15.24-.83l-8.34-1.03c-2.57-.32-6.18-2.05-7.79-3.92l-2.56-2.98-3.08-3.09c-1.22-1.23-2.62-3.97-3.54-6.12-3.48-8.16-3.14-8.37-1.01-17.31l.85-3.57.83,2.7.54,1.04Z" style="fill:#42c7dc;"/><path d="M485.69,239.83c-.17-.2,1.1.89,1.3,1.25l3.46,6.18,2.44,6.63,2.82,4.65,5.69,7.88,3.12,2.68,3.81,3.61c.51.48,1.09,1.09,1.51,1.06l.64,3.65c.07.37,1.01,1.6,1.36,1.5l2.49-.75,2.95,1.47,2.21,4.06-1.62,4.15c-2.9,7.4,3.17,13.03,11.03,18.21l-.65,4.04,2.81,4.92c.55.96.68,3.62.75,4.84l.3,5.89-1.43.03c-1.21-1.79-3.77-3.81-6.05-4.42l-6.74-1.81-4.29-.93-3.52-.99-4.52-4.21-3.1-.75c-.63-1.89-1.98-4.58-3.27-5.54l-3.61-2.72-2.9-3.26c-4.09-4.59-5.8-6.49-11.42-4.58l-3.97-1.44c.47-.27-.08-2.1-.44-2.64l-2.21-3.23-2.26-6.45-4.85-4.43c-.84-.77-2.93-2.56-3.24-3.64l-1.94-6.77-.4-4.92c-.14-1.68-2.2-4.91-2-6.59l1.14-9.49c.16-1.37,2.38-3.39,3.5-4.26l3.04-2.36,4.72-.15c1.65-.05,4.88,1.08,6.72,1.83l6.61-2.21Z" style="fill:#d7ccfc;"/><path d="M433.98,165.13l1.13,1.66c.25.53,1.3,2.06,1.77,2.38l5.24,3.53,3.6,3.25.89,1.6,3.93,8.01,3.52,8.47,1.86,4.08,7.25,13.89,3.46,6.31,3.73,8.54c.66,1.51,2.34,3.84,3.55,5.02l4.34,4.23,3.69-2.26,3.75,6-6.61,2.21c-1.84-.74-5.07-1.88-6.72-1.83l-4.72.15-3.04,2.36c-1.12.87-3.33,2.89-3.5,4.26l-1.14,9.49-5.36-6.5-5.65-1.14c-.78-.16-2.61-1.13-3.01-1.83l-4.06-7.15-3.23-4.64c-.73-1.04-1.58-3.57-1.97-5.06l-2.27-8.52-2.54-5.61c-1.42-3.14-2.59-6.49-3.2-9.76l-.99-5.33-2.56-6.33-2.85-9.21c-.33-1.08.16-3.4.48-4.76l-1.34-5.81-.35-5.82c-.79-.91-2.6-2.93-2.99-4.01l-1.41-3.93,4.93.84,3.45,3.98,5.22,7.6,3.28-1.29c.74-.29-.35-2.47-.51-3.24l-.9-4.36,1.85.55Z" style="fill:#d7d0fc;"/><path d="M345.84,109.24l18.86,33.02,8,14.07,21.39,37.66.16,2.83-4.58,2.79c-4.81,3.79-9.85,10.9-13.11,16.92l-5.65,10.43-8.35,15.66-8.69,16.32-9.03,16.97-5.89,11.01-7.81,14.25-7.19,12.94c-1.64-.17-3.66-2.11-4.34-3.58l-2.19-4.77c-.55-1.19.68-4.43,1.28-4.86,1.89-.36,3.37-1.27,3.48-2.23s-1.94-3.09-2.47-2.32l-2.21,3.21-3.24-6.18c-.82-1.56-3.07-4.46-3.03-6.12.03-1.35,0-3.27-.3-4.22-.67-2.05-.33-3.8-.28-6.23l.22-9.67-4.52-12.44-.94-4.61-5.42-8.94-3.1-5.97-5.19-8.78-2.22-3.11c-3.65-5.11-1.75-8.17-4.91-16.72l-2.47-6.66c-.67-1.81-4.89-3.77-5.01-6.97l.94-1.72,4.41-8.09,11.87-21.27,5.89-10.76,1.92-4.08c.2-.11,1.53-1.5,1.84-2.13l3.22-6.56,1.6-2.35,4.27-7.65,4.06-7.2c2.7-4.79,5.64-9.38,8.66-13.38l4.23-1.81c4.64-1.99,9.95-.85,14.01,1.98l1.82,1.34Z" style="fill:#fdfdfd;"/><path d="M398.77,199.04l1.35,2.81c-.26,1.05-.81,3.11-1.36,3.88l-2.23,3.12-4,7.84-4.05,7.53-2.88,7.45-1.69,5.93-3.26,7.09-3.53,8.22-2.4,6.98c1.82,6.91-.95,12.06-4.1,17.59l-6.23,10.92-5.17,8.88c-2.68,4.6-5.44,7.38-10.52,6.84l-2.97-5.98c5.15.4,6.91-3,9.38-8.08,3.37-4.62,6.26-9.13,8.59-14.3l2.02-4.47c2.66-5.88.35-8.97,2.78-15.5l1.92-5.17,4.39-10.05,3.42-8.33c.28-.69-.47-3.57.06-4.11l3.91-3.96c.77-.78,2.46-3.21,2.83-4.25l3.36-9.47c.75-2.13,2.24-4.9,1.92-6.47l-.6-4.38,4.58-2.79c1.13-.69,3.73,1.42,4.51,2.23Z" style="fill:#8c8ff7;"/><path d="M416.66,161.05l1.41,3.93c.39,1.08,2.2,3.1,2.99,4.01l.35,5.82,1.34,5.81c-.32,1.37-.81,3.68-.48,4.76l2.85,9.21,2.56,6.33.99,5.33c.61,3.27,1.78,6.63,3.2,9.76l2.54,5.61,2.27,8.52c.4,1.49,1.25,4.02,1.97,5.06l3.23,4.64-1.63,4.67-.86,3.46c.23-.07-1.38.53-1.74.58l-5.09.7-2.86,5.06-7.32-12.53-4.3-7.96-5.72-9.7-.03-2.26c1.59-2.49-.94-3.35.2-9.31.37-1.94.89-6.24.12-8.02l-2.69-6.2-3.64-8.7c-1.85-3.42-3.16-6.81-4.21-10.76l-2.12-2.79-.35-10.77c-.54-1.53-.98-3.74-.97-5.1l.06-8.17c.01-1.56-.57-4.26-.25-5.54.68-2.67.71-5.4.15-7.79l-1.93-8.13-2.03-5.94-2.91-6.46-2.74-8.13-.34-4.91-4.29-9.72c-.67-1.53-.06-4.92.62-6.38l.36-3.65c1.35,2.04,2.33,4.68,2.74,7.48l.8,5.35c.18,1.18,1.36,3.79,1.99,4.86l3.79,6.39c.67,1.13,1.41,3.96,1.63,5.18l.96,5.31,1.03,3.24.1,5.46,5.09,10.1,5.68,11.27,4.98,7.84,2.49,3.17Z" style="fill:#d4d3fc;"/><path d="M477.3,295.13l3.97,1.44c5.62-1.92,7.33-.02,11.42,4.58l2.9,3.26,3.61,2.72c1.29.97,2.64,3.66,3.27,5.54l3.1.75,4.52,4.21c.04,2.34,1.18,4.51,2.19,7.07l2.86,7.26,1.63,4.53c.43,1.2.86,2.98,1.05,4.4l.91,6.66-2.05,2.87-3.54,2.04c-1.23.71-3.78-1.39-5.39-2.09-2.17-.94-11.43.46-12.38,4.13l-2.54,1.65c-1,.64-1.72,3.27-2.06,4.62l-.98,1.37-23.03-41.19,1.32-.5c.39-9.18-6.52-8.72-5.37-14.04l5.64-2.04,2.02-3.82c1.03-.13,2.78-.34,2.8-1.04l.11-2.82c.05-1.21,2.91-1.97,4.03-1.56Z" style="fill:#d2c8fc;"/><path d="M516.68,350.42l3.52,2.42,4.03,3.13,4.04,4.46,3.84,2.7c.88.62,2.04,2.68,2.6,3.72l2.22,4.19,3.57,1.46,6.73,4.45,3.82,2.17,3.11,1.83,4.07,2.76.91,6.14-.22,4.5-5.09-2.04c-.57-.23-2.18-1.75-2.77-1.46l-3.81,1.89-4.6-2.3c-4.46,1.96-8.05,2.32-12.65,2.89l-8.61,3.41c-1.45.58-3.22.94-5.31,1.33l-4.25,3.2-15.2-26.91-6.86-12.22.98-1.37c.34-1.34,1.07-3.97,2.06-4.62l2.54-1.65c.95-3.67,10.21-5.07,12.38-4.13,1.61.69,4.15,2.8,5.39,2.09l3.54-2.04Z" style="fill:#d0c3fc;"/><path d="M558.92,394.36l1.54,1.11,2.32,3.94c.55.93,2.86,2.18,3.76,2.93l4.48,3.71,3.26,2.63c1.27,1.02,2.84,2.1,3.64,3.29,5.02,7.47,8.33,3.18,12.56,7.47l4.08,4.13,3.11,3.88,4.29,5.42c.36.45,2.19,1.43,3.35,1.98.49-1.75,3.52-4.62,5.52-3.82,1.7.68,3.82,3.13,4.68,4.32l1.27,1.66-4.24-.12c-1.63-.05-4.01,2.11-5.72,4.11l-4.8-3.16c-2.18-1.44-6.6-3.89-9.03-4.25l-7.46-1.11-3.85-2.29-4.17-2.2c-1-.53-3.28,1.45-4.27,2.42-2.03,1.98-5.3-4.69-10.29-1.5-4.63,2.96-5.89-2.3-10.36,1.6l-4.67.42-1.67,6.37-1.55-.03-2.3,2.5c-3.17,3.44-1.17,7.13-2.51,7.63l-2.01.52-5.27-9.37-2.64-4.73-4.2-7.55-13.93-24.94,4.25-3.2c2.09-.39,3.86-.75,5.31-1.33l8.61-3.41c4.6-.57,8.19-.94,12.65-2.89l4.6,2.3,3.81-1.89c.59-.29,2.2,1.23,2.77,1.46l5.09,2.04Z" style="fill:#cebdfc;"/><path d="M544.71,437.22l3,3.87,4.96.11c2.14,1.48,4.45,2.86,6.49,3.5l7.37,2.32c.35.74,1.16,2.4,1.64,2.82l4.71,4.12,4.78,4.18,4.6,5.67c1.9,2.35,5.2,3.19,7.99,1.04l5.43,2.23c.68.28,2.11,2.14,2.74,2.69,6.51,5.74,16.66.23,20.44,5.11l-2.72,2.95c-3.39-.22-6.06.16-9.46.92-3.8.84-9.3-4.91-12.99-4.01l-4.67,1.15-6.27.76-5.69,1.28c-1.94.44-5.68,2.61-7.37,3.56-1.92,1.07-6.17-2.03-7.83.17l-2.99,3.34-3.58-6.34-17.4-30.81,2.01-.52c1.34-.5-.66-4.19,2.51-7.63l2.3-2.5Z" style="fill:#c9b8fc;"/><path d="M412.33,221.86l.03,2.26c-.43-.74-2.81-1.1-3.53-.63s-2.08,1.77-2.67,2.52l-4.14,5.3-2.89,5.83-4.05,4.99c-1.99,2.46-3.49,5.62-4.24,8.62l-1.19,4.79-2.8,8.37-4.51,13.47-2.56,7.2c-3.6,3.78-5.57,7.14-7.16,12.23-1.08,3.44-5.76,5.08-11.52,15.28l-1.73,3.07-4.46-.53c-.14.08-1.14.66-1.44.53l-1-3.44-3.79-7.61c5.09.54,7.84-2.24,10.52-6.84l5.17-8.88,6.23-10.92c3.15-5.53,5.92-10.68,4.1-17.59l2.4-6.98,3.53-8.22,3.26-7.09,1.69-5.93,2.88-7.45,4.05-7.53,4-7.84,2.23-3.12c.55-.77,1.1-2.83,1.36-3.88l10.88,19.27,1.33.74Z" style="fill:#9392f8;"/><path d="M529.97,433.76l2.64,4.73,5.27,9.37,17.4,30.81,3.58,6.34,4.66,8.24,2.99,5.48,6.38,12.94v7s-.74,1.65-.74,1.65c-.49,1.43-1.92,3.69-3.01,4.55-.68.53-1.71,1.38-2.03,2.04l-2.3.2-2.96.72-4.55-.66-7.44-1.16-4.19-.89-13.72-3.04-25.6-5.57-2.84-.62-2.23-3.3-2.23-2.93,2.66-5.11c1.5-.74,3.78-2.55,4.58-3.98l2.2-3.96,3.52-5.62,5.39,1.06c1.57.31,5.35.02,5.95-1.49l2.59-6.61c-.76-.82-2.34-2.51-3.09-3.05l-6.56-4.71.11-5.27.2-8.91c.02-.84-.07-3.41-.65-3.92l-4.02-3.58c-.02-1.13.42-4.25,1.12-5.39,1.23-2.01,5.08-2.33,6.88-.22,3.06-1,5.38-3.17,6.45-6.07.1-3.8,1.13-7.37,3.59-9.1Z" style="fill:#ad93fb;"/><path d="M522.37,558.18l-4.79-.53-6.72-1.01c-4.12-.62-6.76,1.41-13.9,1.12-3.32-.13-6.03.92-8.95,2.32l-6.69,2.71-1.03-4.81-2.34-6.92-2.03-5.15,7.11.35h4.11s11.73-.57,11.73-.57l4.91-1.2c4.04-.99,8.13-.45,12.23.26l5.93,1.03h13.89s5.66-.24,5.66-.24c9.28-.38,16.19-4.56,22.14-11.99,1.41-1.76,2.67-4.92,3.48-6.63.31-.66,1.35-1.51,2.03-2.04l.83,3.16-3.36,8.48c-.49,1.25-2.49,3.84-3.46,4.77l-6.56,6.29c-.82.79-2.98,2.53-3.97,2.93l-5.67,2.26-6.35,1.82-8.51.66-4.64,1.28-5.08,1.65Z" style="fill:#ada8f8;"/><path d="M141.44,441.09l-4.3,7.99-6.41,11.93-6.46,11.92c-.18-.32-.63-.27-.93-.24l-6.7,4.97c-1.08.8-4.33,1.64-5.68,1.95l-9.15,2.08c-1.55.35-4.27.76-5.29,1.46l-2.45,1.7c-1.89-.54-5.13-1.12-6.56-.54l-5.29,2.13,2.36-2.92c2.22-1.87,4.14-4.26,5.3-6.69l8.71-5.36-1.92-4.49,1.44-2.19,6.44-1.08c.9-.15,3-1.84,3.74-2.46l4.35-3.61,4.09-3.44c.63.3,3.1.63,3.73.1l8.04-6.74,6.1-3.72,4.85-3.87,1.98,1.14Z" style="fill:#47dae0;"/><path d="M285.91,159.99l-.56,1c-.27.33-1.8.57-2.27.57l-7.43.04-3.14,1.14-4.35,1.57-6.78,2.41-2.24-1.01-1.43.52-.83-1.09-3.86-4.34-7.3-7.72.75-7.28c-2.6-2.69-3.66-6.01-3.11-9.97l-3.23-6.1c-.85-1.61-.94-5.48-1.16-7.31l3.4,1.33,7.99,4.62,2.67-.58.1-5.43c1.31-1.81,2.96-3.98,2.95-5.45l.62,1.29c.76,2.45,2.18,5.51,3.62,7.31l3.62,4.5,2.99,4.18c3.13,4.38,4.22,10.01,4.2,15.54l5.11,4.19,3.66,3.52c1.48,1.42,4.03,2.14,6.02,2.56Z" style="fill:#adeaf5;"/><path d="M294.32,161.85l-11.87,21.27-2.3-1.6c-2.23-1.25-5.18-1.07-8.38-.9-2.71.14-6.93-2.04-9.99-2.24l-5.77-.38c-.54-2.38.14-4.84,2.48-6.74l.65-5.56,2.24,1.01,6.78-2.41,4.35-1.57,3.14-1.14,7.43-.04c.47,0,2-.24,2.27-.57l.56-1,8.41,1.86Z" style="fill:#a4e6f3;"/><path d="M155.44,415.09l-3.72,6.91-10.28,19.08-1.98-1.14-4.85,3.87-6.1,3.72-8.04,6.74c-.62.52-3.1.2-3.73-.1l-4.09,3.44-4.35,3.61c-.75.62-2.84,2.31-3.74,2.46l-6.44,1.08c-2.75.46-3.17-3.66-7.9-4.04l-5.19-.41.24-1.79c.07-.36,1.45-.43,1.8-.56l4.49-1.58c1.4-.49,3.85-3.13,4.2-4.59l1.71-7.21c.43-1.8,2.42-6.23,4.26-6.12l7.52.43c1.45.08,4.57-.81,5.78-1.59l5.18-3.33,3.93-3.71,3.52-1.91c2.23-1.21,3.79-1.53,6.89-.74,5.32,1.36,8.38-7.58,9.85-8.39l9.32-5.1,1.74.97Z" style="fill:#4ddee1;"/><path d="M259.29,110.02c.78.67,2.57,2.49,3.09,3.56l2.27,4.63c7.65,2.74,7.25,9.22,12.96,9.5l5.51,7.07c1.9,2.45,3.62,4.42,6.15,6.02l6.14,3.86c2.12,1.73,4.15,2.9,6.73,2.36l-1.92,4.08-5.89,10.76-8.41-1.86c-1.99-.41-4.54-1.14-6.02-2.56l-3.66-3.52-5.11-4.19c.02-5.53-1.06-11.16-4.2-15.54l-2.99-4.18-3.62-4.5c-1.44-1.8-2.86-4.86-3.62-7.31l-.62-1.29-.07-6.14,3.28-.74Z" style="fill:#b1e5f6;"/><path d="M323.96,314.11l-8.26,14.93-1.33,2.25-7.16,12.73-5.16,9.14-.91.1c-1.59-3.09-3.15-5.75-4.62-7.55l-4.23,1.05c-1.72-2.75-2.66-5.95-4.08-9.2l-3.04-6.97-1.57-5.48c-2.27-4.32-4.99-9.12-5.61-13.94l-.69-5.38-.66-6.48-1.23-5.99c-.65-3.17-2.86-5.41-5.85-6.29l-2.55-6.13-2.53-5.69-1.85-2.8c2.43-3.25.33-4.83,1.37-9.37.37-1.61.35-4.35-.43-5.25l-4.34-4.98-5.28-5.56c-.84-.88-3.59-1.49-4.09-1.17l-1.94.42,2.42-5.24,2.19-4.74.68-1.82,1.29-1.35,7.99-14.24,7.27-12.96c.21-.38.73-2.01.47-1.87.38-.1,1.02-.83,1.22-1.18l4.16-7.49,1.48-2.67c.11,3.2,4.34,5.16,5.01,6.97l2.47,6.66c3.17,8.54,1.27,11.61,4.91,16.72l2.22,3.11,5.19,8.78,3.1,5.97,5.42,8.94.94,4.61,4.52,12.44-.22,9.67c-.05,2.43-.4,4.18.28,6.23.31.95.33,2.86.3,4.22-.04,1.66,2.21,4.56,3.03,6.12l3.24,6.18,2.21-3.21c.53-.77,2.58,1.37,2.47,2.32s-1.59,1.87-3.48,2.23c-.61.42-1.83,3.66-1.28,4.86l2.19,4.77c.68,1.48,2.7,3.41,4.34,3.58Z" style="fill:#fafcfb;"/><path d="M161.02,390.05l-2.9,3.33-4.6,6.23c-.76,1.03-3.87,1.38-5.74,1.38-1.55,1.34-4.59,4.11-5.64,5.77l-3.28,5.19c-.64,1.01-3.38,1.99-4.52,2.38l-5.07,1.74-9.24,4.07c-1.21.53-3.19.22-5.18.17l-5.75-.13-8.09.91c-3.61,2.47-7.35,4.41-11.27,5.16-1.07-4.87,7.38-1.63,11.07-7.37l3.96-6.17,2.76-1.37,1.55-4.6c.39-.48,1.65-1.8,2.3-2.19l3.89-2.32,13.13-6.87,4.02-2.3,2.86-1.82,2.82-2.6,2.52.95c1.12.49,4.05,1.61,5.32,1.5l8.04-.72,7.05-.33Z" style="fill:#59e2e5;"/><path d="M174.35,380.06l-5.75,10.52-4.87,9.35-8.29,15.16-1.74-.97-9.32,5.1c-1.47.8-4.54,9.75-9.85,8.39-3.1-.79-4.66-.47-6.89.74l-3.52,1.91c.06-1.28-.44-3.51-1.01-4.42l-3.09-5.69,9.24-4.07,5.07-1.74c1.14-.39,3.89-1.37,4.52-2.38l3.28-5.19c1.05-1.66,4.09-4.44,5.64-5.77,1.87,0,4.98-.35,5.74-1.38l4.6-6.23,2.9-3.33,2.16-1.92,2.91-4.03c1.74-2.4,3.95-4.16,6.64-5.6l1.62,1.56Z" style="fill:#52e3e4;"/><path d="M247.17,246.07l-3.29,6.97-7.96,14.3-1.64,1.79-4.82,1.31c-1.43.5-4.96,1.91-5.82,3.2l-6.73,10.12c-.6.9-3.75,1.31-4.77,1.63l-5.93,1.87-10.44,2.58c-5.17,3.62-5.21,7.67-8.23,9.67l-11.54,7.61c-2.05,1.35-6.4,4.01-8.83,3.94l-4.89-.15-5.97,3.62c-1.26.77-3.27,2.94-4.65,4.47l-7.19,1.56-2.73,1.36c.3-1.83,1.89-3.84,3.5-5.23l4.25-2.41,1.2-3.64,5.51-1.48,6.22-1.67,8.99-5.02,8.45-5.5c1.21-2.95,2.7-4.76,5.97-5.42l3.84-10.81,4.2-2.99c.62-.44,2.27-1.2,3.18-1.54l9.6-3.51c1.1-.4,3.23-2.01,3.4-2.91l4.22-1.4c1.88-.45,4.1-1.32,5.46-2.41l5.29-4.21c3.11-2.48,9.01-3.89,13.02-5.84l4.3-5.41,3.91-4.99.94.53Z" style="fill:#77ebed;"/><path d="M302.04,353.15l-11.95,20.8-2.11,2.89-6.65,11.19c-.49.82-1.2,3.1-1.29,3.46l-.97.65c-2.54-1.45,1.42-5.16-1.81-10.36l-4.6,2.08c-.83.37-3.05-1.11-3.51-2.01l-4.01-7.83c-.62-1.22-2.41-2.91-2.68-3.95l-1.31-5.03c-.35-1.36-1.88-3.98-2.76-5.48-1.54-2.6-1.84-5.74-2.84-8.3l-5.03-12.86c-1.07-.9-2.54-2.68-2.98-3.85l-4.18-11.1-4.18-4.88c-2.45-2.86-1.07-4.51-5.16-10.51s-7.01-5.32-9.58-10.14l-5.24,3.13v-3.03s8.06-14.87,8.06-14.87l6.15-11.6.87-2.42,1.64-1.79,7.96-14.3,3.29-6.97.75.42,1.94-.42c.5-.31,3.25.29,4.09,1.17l5.28,5.56,4.34,4.98c.78.9.8,3.65.43,5.25-1.04,4.55,1.07,6.12-1.37,9.37l1.85,2.8,2.53,5.69,2.55,6.13c2.99.88,5.2,3.12,5.85,6.29l1.23,5.99.66,6.48.69,5.38c.61,4.82,3.34,9.62,5.61,13.94l1.57,5.48,3.04,6.97c1.42,3.25,2.36,6.45,4.08,9.2l4.23-1.05c1.47,1.8,3.03,4.46,4.62,7.55l.91-.1Z" style="fill:#f6fbfb;"/><path d="M392.19,515.66l2.55,6.76,2.65,7.37c.21.57-.29,2.21-.52,2.81l-2.47,6.44-1.26,5.13c-.2.83.03,3.45.5,4.18l3.82,5.98,2.59,11.64c.81,3.65,1.16,6.4-.36,10.01-.81,8.75,4.99,9.31,7.08,14.01.69,1.54,1.84,5.49,3.3,5.58l8.87.53,1.05.88h-28c.35-.1-.75-1.1-1.08-1.1l-3.86-.1-6.96-8.84-3.19-4.19c-1.23-1.61-1.68-4.39-2.07-6.74l-2.42-14.29-.34-7.74-1.79-6.24-.23-9.59c-1.66-2.06-3.89-6.49-2.69-8.72l3.76-7.02,2.1-5.47,6.76.3,5.39.24,6.81-1.85Z" style="fill:#98b9f3;"/><path d="M420.98,533.06l-.43,9.35-1.16,5.18c4.67,7.59,2.58,12,5.4,15.25.87,1.01,2.83,2.69,3.08,3.67l2.37,9.45,3.08,8.66c.48,1.35-.12,3.38.26,4.02l3.98,6.63,1.49,1.71h-19.05s-1.05-.88-1.05-.88l-8.87-.53c-1.45-.09-2.61-4.04-3.3-5.58-2.1-4.7-7.9-5.26-7.08-14.01,1.52-3.61,1.17-6.36.36-10.01l-2.59-11.64-3.82-5.98c-.47-.74-.7-3.36-.5-4.18l1.26-5.13,2.47-6.44c.23-.6.73-2.24.52-2.81,1.95-1.68,5.67-2.06,8.64-1.18l5.85,1.73,5.52,2.31c.77.32,3.01.63,3.6.41Z" style="fill:#9eb6f4;"/><path d="M457.18,542.12c3.26.18,8.13,1.88,11.86,2.55l6.87,1.23,2.03,5.15,2.34,6.92,1.03,4.81.54,2.85-1.5,5.18-3.14,5.12-1.19,5.3c-1.57,6.97,3.05,9.6-.82,14.5l19.92.79-22.12.45h-13.69s-3.87-1.31-3.87-1.31c-.42-3.52-1.47-7.64-3.02-10.9l-1.73-3.67c-.47-1,.53-4.13.08-5.31l-3.07-8.03-3.24-12.03c-.36-1.35-1.38-4.19-1.15-5.44l.93-4.99.85-4.67,5.2,1.18c1.6.36,5.21.25,6.87.34Z" style="fill:#a9aff7;"/><path d="M369.14,514.93l2.66,1.35c.42.21,1.13.68,1.43.69l-2.1,5.47-3.76,7.02c-1.2,2.23,1.03,6.66,2.69,8.72l.23,9.59,1.79,6.24.34,7.74,2.42,14.29c.4,2.35.84,5.13,2.07,6.74l3.19,4.19,6.96,8.84,3.86.1c.32,0,1.42,1,1.08,1.11h-17s-2.37-.86-2.37-.86c-.88-.19-2.95-1.23-3.58-2.05l-3.64-4.72-2.35-4.48c-2.36-4.49-4.61-8.73-5.17-13.92l-1-9.17c-.24-2.2-3.11-5.99-4.53-7.96l-3.17-4.41c-.69-.96-.14-3.5.25-4.61l1.48-4.19c.5-1.41-2.08-4.13-2.92-5.71-1.57-2.94-2.62-8.32-1.45-11.31l1.72-4.39.71-5.73,7.31-1.22c2.03-.34,6.3-.29,8.18.08l4.66,2.59Z" style="fill:#92bcf1;"/><path d="M348.98,513.48l-.71,5.73-1.72,4.39c-1.17,2.99-.12,8.36,1.45,11.31.84,1.57,3.42,4.3,2.92,5.71l-1.48,4.19c-.4,1.12-.94,3.66-.25,4.61l3.17,4.41c1.42,1.98,4.29,5.76,4.53,7.96l1,9.17c.57,5.18,2.82,9.42,5.17,13.92l2.35,4.48,3.64,4.72c.63.82,2.7,1.86,3.58,2.05l2.37.86h-10.99s-1.98-.92-1.98-.92c-4.08-.05-8.38-.33-12.24-2.01-2.48-1.08-7.12-8.57-8.12-13.83l-1.91-10.04c-.16-.86-.24-3.45-1.05-3.53l-4.05-.41c-2.57-6.19.11-9.41-4.65-16.29-.76-1.1-2.28-3.69-2.28-4.88l-.06-8.09.86-6.5,1.73-5.62,2.06-1.69c1.08-.88,3.88-1.97,5.47-2.63.06-1.23.96-4.76,2.27-5.3l5.04-2.06c.92-.37,2.92.43,3.89.27Z" style="fill:#8dbff0;"/><path d="M423.93,531.09c.73-.23,2.19.38,2.96.86l5.83,3.57c2.37,1.45,5.39,2.94,8.09,3.77l4.3,1.32-.85,4.67-.93,4.99c-.23,1.25.78,4.09,1.15,5.44l3.24,12.03,3.07,8.03c.45,1.18-.56,4.31-.08,5.31l1.73,3.67c1.54,3.27,2.6,7.38,3.02,10.9l3.87,1.32h-20.26s-1.49-1.7-1.49-1.7l-3.98-6.63c-.38-.64.22-2.67-.26-4.02l-3.08-8.66-2.37-9.45c-.25-.98-2.21-2.66-3.08-3.67-2.82-3.25-.73-7.67-5.4-15.25l1.16-5.18.43-9.35c.01-.32.48-1.19.79-1.29l2.16-.68Z" style="fill:#a4b2f6;"/><path d="M219.2,298.02l-.18-2.34-3.39,3.21c-1.55,1.48-6.06,2.64-8.3,3.64-2.68,1.2-3.17,6.02-6.55,9.19l-4.73,4.44c-1.17,1.1-4.39,3.2-5.2,4.64l-6.07,10.8-1.65,1.35-3.43,1.07c-4.85,2.18-5.79,6.37-10.58,7.06l-3.46,1.05-1.6-4.52c-.32-.9-1.63-2.94-2.48-2.39-1.13.74-2.54,1.78-3.31,2.02l2.26-2.87,3.85-4.2,5.67-5.13,6.49-7.57c4.07-4.76,6.51-4.34,8.81-7l5.67-6.56,4.52-4.29,5.35-3.76,4.54-3.4,6.59-4.5c1.77-1.21,6.2-2.36,8.21-3.54l4.1-7.33c.88-1.58,4.6-3.59,6.22-4.52l2.87-1.02-6.15,11.6-8.06,14.87Z" style="fill:#6bebeb;"/><path d="M151.73,369.47l2.47,3.37c.54.85,2.28,2.14,3.15,1.89l-2.2,4.66-3.7,1.91c-3.21,1.02-6.1,2.19-8.92,4.2l-4.44,3.16-2.82,2.6-2.86,1.82-4.09.36-6.17,1.01-3.31.29-8.78.78c-1.01.09-3.48-.73-4.06-1.46l-3.84-4.86-2.38,3.77-5.19.97c-2.38-1.78-4.33-2.09-6.71-1.78l-5.86.75-5.11.33-9.09-.04c-2.38-.01-4.42-.59-5.92-2.18l4.76-.67c1.05-.69,4.09-1.5,5.27-1.06l5.94,2.2,11.92-2.78,4.14-.93,10.14-1.03c3.55-.36,7.77-4.31,10.16-8.5,1.19-2.09,3.19-4,5.15-4.76l4.54-1.75,3.37-1.5,3.17-1.84,6.23,4.04c1.31.85,4.64.32,6.38-.23l8.66-2.75Z" style="fill:#62e4e7;"/><path d="M183.12,332.97l-3.59,2.93c-2.84,2.31-2.77,8.54-6.36,13.39l-6.9,6.05-4.21,4.75-3.82,4.04-6.51,5.34-8.66,2.75c-1.74.55-5.07,1.08-6.38.23l-6.23-4.04-3.17,1.84-2.93-1.47-2.12-1.6c-.59-.44-2.05.78-2.77,1.21l-5.21,3.15.88-3.8,7.44-2.38c2.05-.68,5.29-1.7,7.17-1.42l6.57.98,4.57-2.87c.49-.31,1.82-1.78,2.15-2.24,1.7-5.6,7.59-5.66,14.73-11.04,1.01-.76,2.74-2.65,3.73-3.06l5.1-2.13c.77-.32,2.31-2.05,2.51-2.48,4.79-.69,5.73-4.88,10.58-7.06l3.43-1.07Z" style="fill:#67e7e9;"/><path d="M236.84,534.15l-2.53,10.06-2.08,5.87c.02,4.11-.57,7.64-3.34,11.27l.27,11.53c.03,1.11.86,3.8,1.34,4.69l2.12,3.93,2.76,4.15,3.59,4.5,4.3,2.53,5.78,2.36c3.34,1.36,8.84.96,12.95.92l2.01,1.05h-34c-.12-.53-.29-.81-.6-.82l-1.71-.06c-.29-4.34-5.7-1.94-10.03-6.67-6.41-2.04-11.48-12.19-11.01-15.43l1.04-7.18c.3-2.07-.35-6.58.56-8.34l2.87-5.51,4.04-7.79,2.55-6.39,2.38-.51c1.85-.4,5.49-1.73,6.99-2.92l4.03-3.19,3.82-3.17.8.96,1.11,4.17Z" style="fill:#5fc9e5;"/><path d="M253.96,530.39l-.63,3.99c-1.37,8.63-5.74,7.08-6.99,13.21s2.47,6.92,4,16.23l.86,5.26,2.43,9.19,1.3,3.16c1.07,2.61,3.8,6.61,7.26,7.4.88,1.31,2.5,3.4,3.66,4.13l4.08,2.58,13.85.59c.58.02,2.37.79,2.28.84l-22.06.04-2.01-1.05c-4.11.04-9.61.44-12.95-.92l-5.78-2.36-4.3-2.53-3.59-4.5-2.76-4.15-2.12-3.93c-.48-.89-1.31-3.58-1.34-4.69l-.27-11.53c2.77-3.63,3.36-7.15,3.34-11.27l2.08-5.87,2.53-10.06,4.62-1.56c.89-.34,2.24-2.61,2.93-3.33l5.3-5.51c.87-.9,3.33-2.22,4.35-2.48l-.59,2.47c-.48,2-.28,4.66.51,6.65Z" style="fill:#65c9e6;"/><path d="M270.73,522.26l.07,2.55-.6,5.29-.93,8.14c-.41,3.59-6.69,6.14-3.07,13.69l-2.48,7c-.33.93-.49,4.07-.25,5.15l.78,3.49c.81,3.59,3.05,6.01,5.42,8.85l3.53,4.23,3.39,4.88c.98,1.41,3.14,3.41,4.53,4.01l5.17,2.21,7.98,3.91c1.72.84,6,.3,7.92.3h6.97s.84,1.04.84,1.04l-23.93-.03c.1-.05-1.7-.81-2.28-.84l-13.85-.59-4.08-2.58c-1.16-.74-2.79-2.82-3.66-4.13-3.46-.79-6.19-4.79-7.26-7.4l-1.3-3.16-2.43-9.19-.86-5.26c-1.53-9.31-5.22-10.25-4-16.23s5.62-4.57,6.99-13.21l.63-3.99,2.66-1.8,4.47-3.45c.92-.71,3.14-1.91,4.21-2.14l5.43-.75Z" style="fill:#6ec8e8;"/><path d="M301.19,523.1c.13,1.63-.82,4.36-1.83,6.27-2.59,4.88,1.63,5.07,1.77,11.41l.21,9.31c.18,7.89-2.8,8.33-2.18,10.88,3.24,13.4,6.73,13.48,8.41,17.44,1.05,2.48,2.37,6.34,4,7.57l4.71,3.55,6.22,3.05c1.17.57,2.96,1.77,4.39,2.9l14.5.17,1.76,1.33-18.16.02-.9-.92-11.61-.37c-3.1-5.47-6.74-3.11-10.38-11.18-.95-2.12-4.68-5.3-6.42-7.07s-3.71-7.55-3.73-11.18l-.06-7.42-.5-6.23-.02-13.53c0-5.76-2.29-5.43-.7-12.12l1.99-8.36.81-12.21,1.42-4.95c.95-.22,2.33-1.48,3.2-2.25l3.7-2.79c-.59,2.46-.56,4.7.2,7.7l-1.34,3.92c-.57,1.66-.31,4.88-.13,7.04l.65,8.01Z" style="fill:#7dc3ec;"/><path d="M294.91,501.48l-1.42,4.95-.81,12.21-1.99,8.36c-1.59,6.69.69,6.35.7,12.12l.02,13.53.5,6.23.06,7.42c.03,3.62,2.02,9.44,3.73,11.18s5.46,4.95,6.42,7.07c3.63,8.07,7.27,5.71,10.38,11.18l11.61.37.9.92h-14.99s-.84-1.04-.84-1.04h-6.97s-3.02-2.43-3.02-2.43c-1.63-1.18-3.43-5.08-4.63-6.94l-2.79-4.31-2.79-4.32c-1.17-1.8-2.67-4.65-3.06-6.55l-.89-4.23-1.87-7.21-1.48-5.71-1.29-4.96c-.99-3.82-.82-7.46.13-11.47,1.94-8.28-2.14-12.07.12-16.69l1.88-3.84,3.89-7.96,1.76-3.61c.93-1.9,4.72-3.77,6.78-4.25Z" style="fill:#7bc4ec;"/><path d="M198.91,533.89l-2.77,5.38-12.47,7.59-3.28.47-4.36,2.93-3.93-1.01-8.98-.61-4.05-.28,1.53-4.56,4.65-4.88,4.84-1.51,7.29-1.94,7.88-2.17,5.65-2.23,6.02-2.92,1.71,1.32c.19,1.49.7,3.56.26,4.42Z" style="fill:#4ac5de;"/><path d="M217.71,538.82l-2.55,6.39-4.04,7.79-2.87,5.51c-.92,1.76-.26,6.27-.56,8.34l-1.04,7.18c-.47,3.24,4.6,13.39,11.01,15.43,4.33,4.73,9.74,2.33,10.03,6.67l-10.62-.11-15.73-.39-7.07-4.09-5.27-1.85c-1.69-.59-4.27-3.69-5.76-4.65l-5.64-3.63,2.73-4.96c1.53-2.79,3.26-4.65,6.25-6.01l.89-3.08c-.2-1.79.22-3.39.98-4.53l2.69-4.05,3.32-4.32c.37-.48.6-2.22.58-2.83l3.46-1.33,3.88-2.87c2.5-.51,6.22-1.52,7.73-2.86l4.14-3.66c.83-.73,2.72-1.84,3.47-2.1Z" style="fill:#57cbe3;"/><path d="M220.08,538.31l-2.38.51c-.75.26-2.64,1.36-3.47,2.1l-4.14,3.66c-1.51,1.33-5.22,2.34-7.73,2.86l-3.88,2.87-3.46,1.33-.18-6.38c.86-2.34,1.22-4.13,1.28-5.99l2.77-5.38,9.17-4.77c5.63-.55,10.63-3.55,14.19-7.91.73-.9,3.19-2.14,4.22-2.71l2.56-1.43-1.31,4.66c-1.58,1.59-3.57,3.94-4.12,5.68l-3.52,10.91Z" style="fill:#55c5e2;"/><path d="M204.35,504.22l.18.78-2.94.6-16.76,4.08-13.08,2.92-8.38,1.83-2.66-.56,2.14-1.61c.49-.37-.09-2.37-.5-2.87l-4.35-5.28c-.87-2.51-1.9-5.03-3.14-6.82l-2.53-3.65-2.38-4.97-6.8-6.87c-.7-.71-1.87-2.76-2.36-3.66l-3.96-7.45-.25-6.57c-.05-1.3-3.43-2.75-4.08-2.83l-1.79-.29,6.41-11.93,4.3-7.99,10.28-19.08,1.03.74c.29.12.7-.15,2.13-.8-.08-.06,1.29,1.05,1.51,1.23l1.06,5.51c1.06,5.5,7.12,10.72,11.21,10.89,2.22.09,4.69,1.78,5.88,3.7l3.55,5.74c2.22,3.59.45,13.57,9.81,16.07,5.41,1.45,3.67,7.13,3.23,10.91-1.11,9.64,2.56,15.36-1.79,17.9l3.1,4.67,1.22-3.42,1.78-1.11,4.93,4.52c.86.79,1.5,2.99,1.78,4.6l2.2,1.05Z" style="fill:#dcf7f7;"/><path d="M171.76,512.59l1.8.18c.66-.03,1.44,5.5-1.3,6.29l-5.38,1.56-4.91,1.27c-.53.14-1.33,1.86-1.11,2.1l-2.02.98-4.56,1.99-4.25,1.24-1.23.69c-2.35-.13-5.43.83-8.13,1.54l-3.58.95c-3.73.98-8.16.54-12.05-.09l-6.3-1.02c-1.29-.21-3.76-1.42-4.82-2.06l-6.97-4.21,2.46-.26c2.48,1.07,7.49.33,10.7-.31l20.15-4.02,23.14-4.99,8.38-1.83Z" style="fill:#35b4d3;"/><path d="M109.39,523.74l-2.46.26,6.97,4.21c1.06.64,3.53,1.85,4.82,2.06l6.3,1.02c3.89.63,8.33,1.07,12.05.09l3.58-.95c2.69-.71,5.78-1.67,8.13-1.54l9.13.5,6.16.67-.9,1.09-9.42,6.94-7.95,2.42c-1.6.49-5.39.64-7.02.73l-6.9.37-8,.28c-2.08.07-6.48-2.27-8-3.76l-9-8.77c-1.89-1.85-3.86-5.86-2.49-7.92l5.01,2.29Z" style="fill:#3bbed7;"/><path d="M206.19,519.7l-4.77,4.73-2.73,2.27-1.74,1.45-6.02,2.92-5.65,2.23-7.88,2.17-7.29,1.94-4.84,1.51-7.14-1.72c-.96-.2-3.42.63-4.37.92l9.42-6.94.9-1.09c.74.08,2.26-.28,3.29-.54l8.86-2.2,5.34-.85,6.45-1.84c3.41-.97,8.57-4.38,11.7-5.44,1.52-.51,4.85.06,6.47.49Z" style="fill:#45bedb;"/><path d="M459.96,256.47c-.2,1.68,1.86,4.91,2,6.59l.4,4.92,1.94,6.77c.31,1.08,2.4,2.87,3.24,3.64l4.85,4.43,2.26,6.45,2.21,3.23c.36.53.92,2.36.44,2.64-1.13-.41-3.99.35-4.03,1.56l-.11,2.82c-.03.7-1.77.91-2.8,1.04l-2.02,3.82-5.64,2.04c-1.15,5.33,5.76,4.87,5.37,14.04l-1.32.5-8.52-15.21-17.84-31.76-6.93-12.23-2.1-4.07-1.67-3.36,2.86-5.06,5.09-.7c.36-.05,1.97-.65,1.74-.58l.86-3.46,1.63-4.67,4.06,7.15c.4.7,2.22,1.67,3.01,1.83l5.65,1.14,5.36,6.5Z" style="fill:#d3cefc;"/><path d="M344.73,296.34l.98,1.78,2.97,5.98,3.79,7.61,1,3.44-3.33-1.54c-1.42-.66-4.42-1.67-5.47-1.86l-2.88,4.94-1.79,3.37-4.46,6.39-5.1,8.15-1.22,1.98-1.96,1.76-6.1,4.63-1.67-6.75-.91-4.26c-.2-.92-1.63-2.61-2.89-2.94l8.26-14.93,7.19-12.94,7.81-14.25,5.77,9.42Z" style="fill:#588de2;"/><path d="M389.68,199.6l.6,4.38c.32,1.57-1.16,4.34-1.92,6.47l-3.36,9.47c-.37,1.04-2.06,3.46-2.83,4.25l-3.91,3.96c-.53.54.22,3.42-.06,4.11l-3.42,8.33-4.39,10.05-1.92,5.17c-2.43,6.53-.13,9.62-2.78,15.5l-2.02,4.47c-2.33,5.17-5.22,9.68-8.59,14.3-2.47,5.08-4.23,8.48-9.38,8.08l-.98-1.78,1.78-1.23c1.54-.79,2.99-2.73,3.91-4.64l3.58-7.51,5.86-12.32c.56-1.19,1.12-3.95,1.41-5.42l1.16-5.93,2.89-4.84c.73-1.22,1.46-4.14,1.51-5.38l.29-6.87c3.81-2.58,5.71-6.56,5.02-11.18l-1.21-4.07,5.65-10.43c3.26-6.01,8.3-13.13,13.11-16.92Z" style="fill:#8a8df6;"/><path d="M344.73,296.34l-5.77-9.42,5.89-11.01,9.03-16.97,8.69-16.32,8.35-15.66,1.21,4.07c.69,4.62-1.21,8.6-5.02,11.18l-.29,6.87c-.05,1.23-.78,4.15-1.51,5.38l-2.89,4.84-1.16,5.93c-.29,1.47-.85,4.24-1.41,5.42l-5.86,12.32-3.58,7.51c-.91,1.92-2.37,3.85-3.91,4.64l-1.78,1.23Z" style="fill:#868bf4;"/><path d="M429.71,254.32l1.67,3.36,2.1,4.07-6.47-.47.85,6.09c-1.96,3.01-4.91,6.11-7.93,8.61l-2.57,8.47c-.34,1.13-2.08,2.8-3.56,3.84-.88,1.87-2.36,6.28-2.33,8.47l.09,7.84c.16.65.86,2.78.72,3.41l-1.34,6.06.11,13.78.08,11.25.3,5.02.34,8.15,6.87,3.03,6.21,1.95c1.13.35,2.04,3.29,2.54,4.31l3.49,6.95,7.62,2.01,5.85,2c.65.22,1.86,2.26,1.62,2.41l-60.15-.03-9.61-18.13-5.94-11.02-2.37-4.52-4.1-8,.73-2.06c.11-.34,1.64.26,2,.42,6.95,3.01,5.74-5.07,12.11-10.73l3.21-2.86,5.08-8.99,2.22-4.11,2.8-6.8,2.41-7.97,4.39-12.6,3.06-5.59,3.06-4.2c1.62-2.22,3.77-5.59,4.49-8.16l1.82-6.51c.33-1.18,1.39-3.71,2.17-4.53l2.83-2.97,6.16-3.8,7.32,12.53Z" style="fill:#a79afa;"/><path d="M412.37,224.12l5.72,9.7,4.3,7.96-6.16,3.8-2.83,2.97c-.78.82-1.84,3.35-2.17,4.53l-1.82,6.51c-.72,2.58-2.87,5.95-4.49,8.16l-3.06,4.2-3.06,5.59-4.39,12.6-2.41,7.97-2.8,6.8-2.22,4.11-5.08,8.99-3.21,2.86c-6.37,5.66-5.16,13.74-12.11,10.73-.36-.16-1.89-.76-2-.42l-.73,2.06-7.83-15.27-1.08-3.32,4.46.53,1.73-3.07c5.76-10.2,10.44-11.84,11.52-15.28,1.59-5.09,3.56-8.45,7.16-12.23l2.56-7.2,4.51-13.47,2.8-8.37,1.19-4.79c.75-3.01,2.24-6.16,4.24-8.62l4.05-4.99,2.89-5.83,4.14-5.3c.59-.75,1.96-2.05,2.67-2.52s3.09-.11,3.53.63Z" style="fill:#9c96f9;"/><path d="M440.4,273.99l17.84,31.76,8.52,15.21,23.03,41.19,6.86,12.22,15.2,26.91,13.93,24.94,4.2,7.55c-2.46,1.73-3.49,5.3-3.59,9.1-1.07,2.9-3.39,5.06-6.45,6.07-1.79-2.11-5.65-1.8-6.88.22-.7,1.14-1.13,4.27-1.12,5.39l4.02,3.58c.58.52.67,3.08.65,3.92l-.2,8.91-.11,5.27,6.56,4.71c.75.54,2.33,2.24,3.09,3.05l-2.59,6.61c-.59,1.51-4.37,1.8-5.95,1.49l-5.39-1.06-3.52,5.62-2.2,3.96c-.8,1.43-3.08,3.25-4.58,3.98l-2.66,5.11,2.23,2.93,2.23,3.3-5.52-1.05-2.51-.51-5.65-1.27-.18-4.36-.08-8.85c-.01-1.28,1.31-4.23,2.51-4.68l4.98-1.9,4.66,1.87,5.2-4.39,1.17-12.19-6.02-1.78c-.66-.19-1.26-2.14-.78-2.68l2.03-2.28-4.3-4.41c-.86-.89.77-3.55,1.57-4.58l3.22-4.19c-.65-1.56-1.37-3.66-1.13-4.64l1.44-5.79,1.13-4.6c-1.69-1.5-3.32-3.26-3.35-4.44l-.26-10.28c-.03-1.06-1.66-3.28-2.52-3.83l-3.88-2.5-2.19-4.88c-.6-1.35,2.12-4.16,3.51-5.37s.12-4.62-1.53-5.14l-1.27-4-3.74-5.23-1.94-5.29-3.62-6.67c-.85-1.56-.44-7.06-9.9-10.59l-5.7-2.13-10.23-3.77-6.33-2.73-4.99-2.28-4.7-2.35c-1.42-.71-3.25-2.73-4.39-4.44l-4.86-2.37c-2.11-1.03-4.61-4.39-4.59-7.13l.15-16.24-.29-28.81-.02-8.15.45-6.24c.16-2.27,1.82-6.61,2.8-8.65l2.97-6.23,4.25.86,1.33-.75Z" style="fill:#ad98fb;"/><path d="M353.46,315.16c.3.14,1.3-.45,1.44-.53l1.08,3.32,7.83,15.27,4.1,8,2.37,4.52-1.71,1.54-1.93-3.75-1.88-5.28-7.67-5.4-3.84,3.18-4.19,3.31c-.95.75-3.07,1.7-4.22,1.9s-3.53-2.81-7.9-.39h-4.97s-1.76-2.15-1.76-2.15l-.99-2.11,1.22-1.98,5.1-8.15,4.46-6.39,1.79-3.37,2.88-4.94c1.05.19,4.05,1.2,5.47,1.86l3.33,1.54Z" style="fill:#608ee6;"/><path d="M567.12,526.92c-.82,1.71-2.07,4.87-3.48,6.63-5.95,7.43-12.87,11.61-22.14,11.99l-5.66.23h-13.89s-5.93-1.02-5.93-1.02c-4.1-.71-8.19-1.25-12.23-.26l-4.91,1.2-11.73.57h-4.11s-7.11-.35-7.11-.35l-6.87-1.23c-3.73-.67-8.6-2.38-11.86-2.55l1.17-1.76,2.83-3.63c2.24,2.25,6.83.43,9.59.42l15.31-.08,4.88.25,6.99.6,23.01.43,7.24-.03,12.74-.45c.48-.02,2.26-.65,2.24-.69l8.66-.18c5.15-1.95,9.26-5.43,12.89-9.04l.1-.84,2.3-.2Z" style="fill:#a7a4f7;"/><path d="M504.97,529.04l8.85.34,6.23.57,10.77.14,4.46.92,15.68-.08c1.69,0,5.22-1.48,6.88-2.02l-.53-1.72,4.55.66,2.96-.72-.1.84c-3.63,3.61-7.73,7.09-12.89,9.04l-8.66.18-23.16-.26-10.75-2.43-4.26-.34-10.93-1.14-7.62-1.54-15.55-3.35-5.02-.96c-.53-.1-2.26-.88-1.9-1.2l5.89.76,9.15.93,8.88.84,5.9.71,11.17-.16Z" style="fill:#9d9bf4;"/><path d="M504.92,522.57l5.14.6,9.8,1.6,9.38.87,6.66,1.23,10.92.36c.75.03,3.48-.8,3.05-1.22l7.44,1.16.53,1.72c-1.66.54-5.2,2.01-6.88,2.02l-15.68.08-4.46-.92-10.77-.14-6.23-.57-8.85-.34c.25-.35-1.37-1.02-1.83-1.14l-4.88-1.24-7.16-1.81-5.04-1.21-1.19-.78,4.17-.1,5.97-.04,9.9-.15Z" style="fill:#9594f3;"/><path d="M497.99,514.85l5.52,1.05,2.84.62,25.6,5.57,13.72,3.04,4.19.89c.43.41-2.29,1.24-3.05,1.22l-10.92-.36-6.66-1.23-9.38-.87-9.8-1.6-5.14-.6c.45-.6-1.17-1.78-1.76-1.89l-4.03-.71-5.29-.5-16.91-2.13c-2.38-.3-5.52-1.09-7.15-2.01l8.18.33,8.86.76,10.09.59c.56.03,1.34-1.9,1.08-2.18Z" style="fill:#8e8ff0;"/><path d="M225.11,489.07l-5.23,5.62c-4.08,4.39-9.99,7.1-15.54,9.53l-2.2-1.05c-.28-1.61-.92-3.82-1.78-4.6l-4.93-4.52-1.78,1.11-1.22,3.42-3.1-4.67c4.35-2.54.67-8.26,1.79-17.9.44-3.78,2.18-9.47-3.23-10.91-9.36-2.5-7.6-12.49-9.81-16.07l-3.55-5.74c-1.19-1.92-3.67-3.61-5.88-3.7-4.09-.17-10.15-5.39-11.21-10.89l-1.06-5.51c-.22-.18-1.59-1.29-1.51-1.23-1.42.65-1.84.91-2.13.8l-1.03-.74,3.72-6.91,8.29-15.16,1.62.02c1.91-.8,4.36-.8,6.36.07l5.11,2.21c1.44.62,3.92,2.89,4.49,4.27l2.12,5.17c1.92,4.69,6.52,4.95,7.64,11.34,1.19,6.78,4.6,8.19,6.62,12.55,1.19,2.56-.87,5.53,1.75,9.93,1.82,3.06,4.91,1.75,5.96,5.09.92,2.93,2.32,7.54,4.12,9.63l6.21,7.23c.09,11.82,8.63,13.5,8.76,19.25l.62,2.39Z" style="fill:#e1f8f7;"/><path d="M321.17,343l-2.03,3.95-.8,11.13-1.07,6.13c-.18,1.05-1.37,3.75-1.16,4.8l.9,4.99-4.18.04-.8,1.17-3.06-.21-2.91-.06-.58-6.6c-.09-.85-.15-2.9.02-3.69l2.31-10.6c.42-1.93.22-6.13.03-7.89l-.64-2.15,7.16-12.73,1.33-2.25c1.26.33,2.69,2.02,2.89,2.94l.91,4.26,1.67,6.75Z" style="fill:#5694df;"/><path d="M306.06,374.95l-5.07.05-7.91.03c-.87,0-2.88-.33-2.98-1.08l11.95-20.8,5.16-9.14.64,2.15c.19,1.76.39,5.96-.03,7.89l-2.31,10.6c-.17.79-.11,2.84-.02,3.69l.58,6.6Z" style="fill:#4d92da;"/><path d="M206.38,321.18l-6.76,12.72-1.74,3.17-12,21.85-3.14,5.8-8.39,15.34-1.62-1.56c-2.69,1.43-4.9,3.19-6.64,5.6l-2.91,4.03-2.16,1.92-7.05.33-8.04.72c-1.28.11-4.2-1.01-5.32-1.5l-2.52-.95,4.44-3.16c2.82-2.01,5.71-3.18,8.92-4.2l3.7-1.91,2.2-4.66c.53-1.12,2.17-2.74,3.41-4.01l3.35-3.44,4.72-3.43c1.04-.75,3.06-3.03,3.86-4.14l4.6-6.44,6.04-7.95c1.01-1.33,4.46-3.18,5.25-4.58,1.7-2.97,3.47-7.28,5.54-9.36l10.13-10.16c.25-.25,1.28-1.41,1.23-1.26-.05.14.51.81.89,1.22Z" style="fill:#5be7e8;"/><path d="M242.14,459.98l-4.64,8.57-3.52,6.49-1.26,2.76-4.27,6.85-3.34,4.42-.62-2.39c-.13-5.75-8.66-7.43-8.76-19.25l-6.21-7.23c-1.8-2.09-3.2-6.7-4.12-9.63-1.05-3.35-4.13-2.03-5.96-5.09-2.62-4.39-.56-7.37-1.75-9.93-2.02-4.35-5.43-5.76-6.62-12.55-1.12-6.39-5.72-6.65-7.64-11.34l-2.12-5.17c-.57-1.38-3.04-3.65-4.49-4.27l-5.11-2.21c-2-.86-4.45-.87-6.36-.07l-1.62-.02,4.87-9.35,5.75-10.52,8.39-15.34.29,2.29c.62-.27,3.36-1.39,3.92-.89,1.76,1.57,4.69,5.54,5.93,7.75l2.61,4.65,3.42,4.19c2.75-.65,5.94.08,6.99,2.03l5.39,10.04c2.45,4.57,3.72,9.13,5.93,14.13l3.01,6.82,2.25,2.41,1.13,6.11,1.09,4.74,2.04,5.21-1.38,4.88,3.14,3.45,4.3,5.84c.4.54,3.66-.05,3.31.06l3.86,4.13,1.09,5.48,1.08,1.96Z" style="fill:#e6f9f9;"/><path d="M279.07,392.14l-19.05,34.73-8.63,15.67.25-4.04,1.7-6.3-4.94-5.38-2.29-4.96-2.46-6.15-1.51-4.91-1.54-4.55-3.45-15.22c-.39-1.73-2.16-5.33-2.92-6.79-2.25-1.89-4.22-3.75-5.38-6.1l-2.21-4.45-2.29-6.21-2.13-5.69c-.1-1.38-.21-4.75-.95-6.03l-4.76-8.14-2.71-4.31-2.23-3.76c-.48-.21-2.28-.98-2.72-1.34l-6.07-4.87-3.16.54,6.76-12.72,11.79-21.3,1.03-1.86v3.03s5.24-3.13,5.24-3.13c2.58,4.82,5.67,4.39,9.58,10.14s2.71,7.65,5.16,10.51l4.18,4.88,4.18,11.1c.44,1.17,1.91,2.96,2.98,3.85l5.03,12.86c1,2.55,1.3,5.7,2.84,8.3.89,1.5,2.41,4.12,2.76,5.48l1.31,5.03c.27,1.03,2.05,2.73,2.68,3.95l4.01,7.83c.46.9,2.69,2.39,3.51,2.01l4.6-2.08c3.24,5.2-.73,8.91,1.81,10.36Z" style="fill:#effbfa;"/><path d="M293.08,375.03l1.92,2.67-.77,6.43-2.92,7.93-3.69,7.5-2.18,4.85-3.83,8.08-1.93,3.99-5.03,11.02-1.89,4.16-3.97,9.07-2.25,5.13-4.27.09,2.41-6.19,2.84-6.25,1.76-4.18,2.94-7.02,2.97-7.08,5.21-10.73,2-3.91,3.93-8.39,2.21-5.52,1.82-5.3-2.37-4.53,2.11-2.89c.11.75,2.11,1.08,2.98,1.08Z" style="fill:#d3e7f4;"/><path d="M262.27,445.96c-.18,0-.41-.05-.48.18l-.09,1.29-2.73.18c-.1-2.53.56-5.38,1.6-7.9l4.44-10.72,3.54-8.62,4.51-9.24,2.5-4.77c4.13-4.56.8-9.01,5.12-14.21.34.34-.37-.36-.66-.65.09-.36.81-2.63,1.29-3.46l6.65-11.19,2.37,4.53-1.82,5.3-2.21,5.52-3.93,8.39-2,3.91-5.21,10.73-2.97,7.08-2.94,7.02-1.76,4.18-2.84,6.25-2.41,6.19Z" style="fill:#cae1f2;"/><path d="M258.98,447.61c-1.29.09-4.02.66-5.31.51l-3.72-.21-.91-1.12,2.34-4.24,8.63-15.67,19.05-34.73.97-.65c.29.29,1,1,.66.65-4.32,5.2-.99,9.65-5.12,14.21l-2.5,4.77-4.51,9.24-3.54,8.62-4.44,10.72c-1.05,2.53-1.7,5.37-1.6,7.9Z" style="fill:#bcdaef;"/><path d="M418.7,514.93l1.78,4.65,3.45,11.51-2.16.68c-.31.1-.77.97-.79,1.29-.58.21-2.83-.09-3.6-.41l-5.52-2.31-5.85-1.73c-2.97-.88-6.69-.5-8.64,1.18l-2.65-7.37-2.55-6.76c.64-1.27,2.45-5.11,4.02-6.18l3.55-2.42,8.22,2.2c3.26.87,8.03,4.05,10.71,5.67Z" style="fill:#9bb2f4;"/><path d="M391.93,497.89l5.84,5.52,1.99,3.65-3.55,2.42c-1.58,1.07-3.39,4.91-4.02,6.18l-6.81,1.85-5.39-.24-6.76-.3c-.3-.01-1.01-.48-1.43-.69l-2.66-1.35,1.64-8.06,1.01-5.13c.07-.37.11-1.4-.04-1.72l5.3.14,7.87-1.38,7.01-.9Z" style="fill:#93b3f3;"/><path d="M431.59,518.14l4.87,2.62c3.4,1.83,6.52,1.15,8.26,3.4,1.05,1.36,2.81,4.5,4.43,5.34l8.96,4.65c1,.52,2.42,1.83,3.07,2.59l-2.83,3.63-1.17,1.76c-1.66-.09-5.27.02-6.87-.34l-5.2-1.18-4.3-1.32c-2.7-.83-5.72-2.32-8.09-3.77l-5.83-3.57c-.78-.48-2.24-1.09-2.96-.86l-3.45-11.51-1.78-4.65,3.41.97c1.55.44,5.01-.02,6.29.62l3.19,1.62Z" style="fill:#9eabf5;"/><path d="M362.15,493.15l5.99,2.87c1.23.59,3.03,2.81,3.6,4,.15.31.11,1.35.04,1.72l-1.01,5.13-1.64,8.06-4.66-2.59c-1.89-.36-6.16-.41-8.18-.08l-7.31,1.22c-.97.16-2.97-.64-3.89-.27l-1.13-8.05-.29-10.12,4.34-.71,8.05-.58c1.57-.11,4.72-1.27,6.09-.61Z" style="fill:#8cb7f1;"/><path d="M343.67,495.05l.29,10.12,1.13,8.05-5.04,2.06c-1.3.53-2.2,4.06-2.27,5.3-1.6.67-4.4,1.75-5.47,2.63l-2.06,1.69-2.98-1.2-6.05-2.06-2.26-2.65,2.71-7.25,1.85-6.23,1.93-4.92,2.79-5.52,3.95-.8,3.78.54,7.7.25Z" style="fill:#88bcf0;"/><path d="M314.45,524.19l-3.7,8.41,1.92,4.88c-.81,2.47-.94,4.91-.38,6.75l1.81,5.94,2.93,9.68.52,5.63,2.07,8.61,4.35,5.82,2.64,4.59c.55.95,2.17,3.26,3.26,3.74l7.75,3.37c1.2.62,3.22,3.13,3.76,4.05l-14.5-.17c-1.43-1.13-3.22-2.33-4.39-2.9l-6.22-3.05-4.71-3.55c-1.64-1.23-2.95-5.09-4-7.57-1.68-3.97-5.17-4.04-8.41-17.44-.62-2.55,2.36-2.99,2.18-10.88l-.21-9.31c-.14-6.34-4.36-6.53-1.77-11.41,1.01-1.91,1.96-4.64,1.83-6.27l4.01.59,9.26.5Z" style="fill:#83c3ed;"/><path d="M324.09,493.02l4.15,2.05-2.79,5.52-1.93,4.92-1.85,6.23-2.71,7.25-1.32,2.49c-1.01.78-2.83,1.87-3.2,2.71l-9.26-.5-4.01-.59-.65-8.01c-.18-2.16-.44-5.38.13-7.04l1.34-3.92c-.76-2.99-.79-5.23-.2-7.7l-.13-1.48,4.54-.74,4.99-1.05,12.89-.16Z" style="fill:#82beee;"/><path d="M219.2,298.02l-1.03,1.86-11.79,21.3c-.37-.41-.93-1.08-.89-1.22.05-.15-.97,1.01-1.23,1.26l-10.13,10.16c-2.07,2.08-3.84,6.39-5.54,9.36-.8,1.4-4.25,3.25-5.25,4.58l-6.04,7.95-4.6,6.44c-.8,1.11-2.82,3.39-3.86,4.14l-4.72,3.43-3.35,3.44c-1.24,1.28-2.88,2.89-3.41,4.01-.86.25-2.6-1.04-3.15-1.89l-2.47-3.37,6.51-5.34,3.82-4.04,4.21-4.75,6.9-6.05c3.58-4.85,3.52-11.08,6.36-13.39l3.59-2.93,1.65-1.35,6.07-10.8c.81-1.44,4.03-3.55,5.2-4.64l4.73-4.44c3.38-3.17,3.87-7.98,6.55-9.19,2.24-1.01,6.74-2.17,8.3-3.64l3.39-3.21.18,2.34Z" style="fill:#63eaea;"/><path d="M260.24,500.16l-2.22,5.06c-.59,1.35-2.07,4.06-2.31,5.59l-1.12,7.01-.56,3.44c-1.02.26-3.48,1.58-4.35,2.48l-5.3,5.51c-.69.71-2.04,2.99-2.93,3.33l-4.62,1.56-1.11-4.17-.8-.96,2.87-6.21,2.22-5.75,2.26-5.93c.72-1.87,1.97-3.74,3.54-5.51l1.88-5.06c.47-1.28,2.15-3.42,2.92-4.31l4.65,1.5,3.51,1.59,1.45.81Z" style="fill:#64c2e6;"/><path d="M251.33,494.9l-.7,1.36c-.77.89-2.45,3.04-2.92,4.31l-1.88,5.06c-1.58,1.77-2.83,3.63-3.54,5.51l-2.26,5.93-2.22,5.75-2.87,6.21-3.82,3.17-4.03,3.19c-1.5,1.19-5.14,2.52-6.99,2.92l3.52-10.91c.55-1.74,2.55-4.08,4.12-5.68l1.31-4.66c.16-.57.07-1.82.06-2.42l2.5-2.02c1.81-1.62,3.4-3.27,4.7-5.28l5.89-6.26c1.97-3.41,5.29-6.11,9.14-6.19Z" style="fill:#5cc1e3;"/><path d="M275.89,494.07l-4.04,9.87c-.58,1.38-1.55,4.66-1.54,6.13l.04,7.49.38,4.7-5.43.75c-1.07.23-3.29,1.43-4.21,2.14l-4.47,3.45-2.66,1.8c-.8-2-.99-4.65-.51-6.65l.59-2.47.56-3.44,1.12-7.01c.24-1.53,1.72-4.24,2.31-5.59l2.22-5.06,4.7-3.37,6.8-3.68c1.1.33,3.13.99,4.15.96Z" style="fill:#6cc2e9;"/><path d="M280.59,521.13c-2.27,4.63,1.82,8.42-.12,16.69-.94,4.01-1.12,7.65-.13,11.47l1.29,4.96,1.48,5.71,1.87,7.21.89,4.23c.4,1.9,1.9,4.75,3.06,6.55l2.79,4.32,2.79,4.31c1.21,1.86,3,5.77,4.63,6.94l3.02,2.42c-1.92,0-6.2.54-7.92-.3l-7.98-3.91-5.17-2.21c-1.39-.6-3.55-2.6-4.53-4.01l-3.39-4.88-3.53-4.23c-2.37-2.84-4.61-5.26-5.42-8.85l-.78-3.49c-.24-1.08-.08-4.22.25-5.15l2.48-7c-3.63-7.54,2.66-10.1,3.07-13.69l.93-8.14.6-5.29,3.7-2.3,6.09-1.37Z" style="fill:#75c7ea;"/><path d="M299.93,492.97c.71.01,1.68,1.28,1.75,1.99l.13,1.48-3.7,2.79c-.87.77-2.25,2.02-3.2,2.25-2.05.48-5.85,2.35-6.78,4.25l-1.76,3.61-3.89,7.96-1.88,3.84-6.09,1.37-3.7,2.3-.07-2.55-.38-4.7-.04-7.49c0-1.47.97-4.75,1.54-6.13l4.04-9.87,11.89-.29,5.2-.93,6.94.12Z" style="fill:#73c0eb;"/><path d="M229.1,514.65c.01.59.1,1.84-.06,2.42l-2.56,1.43c-1.04.56-3.49,1.81-4.22,2.71-3.56,4.36-8.56,7.36-14.19,7.91l-9.17,4.77c.44-.86-.07-2.93-.26-4.42l-1.71-1.32,1.74-1.45,2.73-2.27,4.77-4.73,3.39-1.21,5.08-2.85,3.61-2.47c2.27-1.55,5.23-4.91,6.61-7.04l3.18-4.89,3.89-4.51-.56,3.41-.98,5.01-1.36,6.03.07,3.47Z" style="fill:#51bdde;"/><path d="M204.53,505l-.23,3.45c-.29,1.23-1.81,3.8-2.92,4.58l-2.19,1.94-9.27,2.75-8.87,1.32-6.9,1.2-9.22,2.6-4.1,1.16c-.21-.24.58-1.97,1.11-2.1l4.91-1.27,5.38-1.56c2.75-.79,1.97-6.32,1.3-6.29l-1.8-.18,13.08-2.92,16.76-4.08,2.94-.6Z" style="fill:#3cafd4;"/><path d="M203.03,514.97h-3.83s2.19-1.94,2.19-1.94c1.11-.78,2.62-3.35,2.92-4.58l.23-3.45-.18-.78c5.54-2.42,11.46-5.14,15.54-9.53l1.45,1.49c-.69,3.52-1.86,8.15-4.92,10.16l-10.93,7.18-2.45,1.46Z" style="fill:#45aed5;"/><path d="M199.2,514.97h3.83s-1.83,2.23-1.83,2.23l-1.48,2.01c-3.14,1.06-8.3,4.47-11.7,5.44l-6.45,1.84-5.34.85-8.86,2.2c-1.03.26-2.55.62-3.29.54l-6.16-.67-9.13-.5,1.23-.69,4.25-1.24,4.56-1.99,2.02-.98,4.1-1.16,9.22-2.6,6.9-1.2,8.87-1.32,9.27-2.75Z" style="fill:#3fb8d7;"/><path d="M242.85,473.81l-1.51,4.71-2.3,5.51-2.86,3.37c-2.18,2.57-3.71,6.09-4.24,9.33l-3.89,4.51-3.18,4.89c-1.39,2.13-4.34,5.49-6.61,7.04l-3.61,2.47-5.08,2.85-3.39,1.21c-1.62-.43-4.94-1-6.47-.49l1.48-2.01,1.83-2.22,2.45-1.46,10.93-7.18c3.06-2.01,4.23-6.64,4.92-10.16l-1.45-1.49,5.23-5.62,3.34-4.42,4.27-6.85c.91,1.21,1.36,1.08,1.07-.71l3.71-1.59,5.34-1.69Z" style="fill:#4bb3d9;"/><path d="M433.47,261.75l6.93,12.23-1.33.75-4.25-.86-2.97,6.23c-.97,2.04-2.63,6.38-2.8,8.65l-.45,6.24.02,8.15.29,28.81-.15,16.24c-.03,2.73,2.47,6.1,4.59,7.13l4.86,2.37c1.14,1.71,2.97,3.73,4.39,4.44l4.7,2.35,4.99,2.28,6.33,2.73,10.23,3.77,5.7,2.13c9.46,3.53,9.05,9.03,9.9,10.59l3.62,6.67,1.94,5.29,3.74,5.23,1.27,4c1.66.52,2.96,3.9,1.53,5.14s-4.12,4.02-3.51,5.37l2.19,4.88,3.88,2.5c.86.55,2.49,2.77,2.52,3.83l.26,10.28c.03,1.18,1.66,2.94,3.35,4.44l-1.13,4.6-1.44,5.79c-.24.98.47,3.08,1.13,4.64l-3.22,4.19c-.8,1.03-2.43,3.7-1.57,4.58l4.3,4.41-2.03,2.28c-.48.54.13,2.49.78,2.68l6.02,1.78-1.17,12.19-5.2,4.39-4.66-1.87-4.98,1.9c-1.2.46-2.52,3.4-2.51,4.68l.08,8.85.18,4.36-18.56-4.36c-3.83-.9-8.6-3.13-11.15-5.43,1.92-11.48,9.92-12.02,10.37-15.06.34-2.31,3-6.11,6.45-6.28,1.04-.55,3.45-2,4.24-2.92l3.87-4.54c1.28-7.58-3.18-10.25-3.65-14.36-1.17-10.14,3.69-12.28,3.72-16.78l.08-12.41.14-12.59c.04-3.48,1.73-8.02.38-10.59l-2.2-4.19-2.99-4.9-5.01-6.19-4.54-5.46c-.78-2.68-2.62-5.06-4.69-6.02l-4.35,1.14c-4.34-6.75-8.61-7.18-15.95-7.18.24-.15-.97-2.19-1.62-2.41l-5.85-2-7.62-2.01-3.49-6.95c-.51-1.01-1.42-3.95-2.54-4.31l-6.21-1.95-6.87-3.03-.34-8.15-.3-5.02-.08-11.25-.11-13.78,1.34-6.06c.14-.63-.56-2.76-.72-3.41l-.09-7.84c-.02-2.19,1.45-6.6,2.33-8.47,1.48-1.04,3.21-2.71,3.56-3.84l2.57-8.47c3.01-2.51,5.96-5.6,7.93-8.61l-.85-6.09,6.47.47Z" style="fill:#a999fa;"/><path d="M331.98,340.88l-.87,10.38c-.16,1.36.32,4.09.65,6,.27,1.54-.41,4.9-.56,6.67l-.42,5.16c-.1,1.19,1.05,3.66,2.03,3.77l6.28.73-7.05.24-15.05.17-.9-4.99c-.2-1.05.98-3.75,1.16-4.8l1.07-6.13.8-11.13,2.03-3.95,6.1-4.63,1.96-1.76.99,2.11,1.76,2.17Z" style="fill:#5e97e3;"/><path d="M372.11,374.94l13.72-.04,60.15.03c7.34,0,11.61.43,15.95,7.18l.1,6.92-6.24,15.04-5.76,12.96-4.45,10.47c-3.79,8.9-10.66,17.6-19.55,18.96l-4.93.75-87.24-.29,6.26-2.02,6.48-.55.11-2-4.75.7-1.06-5.16,3.83-1.62-2.4-5.32-2.33-5.57-2.56-6.39-1.78-3.91-4.4-6.96-2.47-5.66-1.44-3.67c-.39-1-1.17-3.85-.97-4.9l1.31-6.86c.57-2.97.49-8.98-.99-10.98l21.85-.09c.74,0,2.74-.96,2.5-.96l21.05-.08Z" style="fill:#fdfdfd;"/><path d="M385.84,374.9l-13.72.04c.33-.42-1.57-.8-2.24-.83l-11.05-.53,7.69-.66,5.24-9.07c.61-1.05,1.53-3.85,1.19-4.77l-2.57-7.12-1.79-4.67,1.71-1.54,5.94,11.02,9.61,18.13Z" style="fill:#6688e4;"/><path d="M453.28,497.08l6.84,6.19c2.54,2.3,7.32,4.53,11.15,5.43l18.56,4.36,5.65,1.27,2.51.51c.26.28-.52,2.21-1.08,2.18l-10.09-.59-8.86-.76-8.18-.33-10.26-5.82-10.39-5.51-4.92-3.03-8.33-5.86.24-2.47,4.44,1.63,7.5,2.99c1.41.56,4.04.52,5.21-.19Z" style="fill:#8690f0;"/><path d="M368.58,347.29l1.79,4.67,2.57,7.12c.33.92-.59,3.72-1.19,4.77l-5.24,9.07-7.69.66,11.05.53c.68.03,2.57.41,2.24.83l-21.05.08-8.06-.04,1.89-1.15,1.81-.74c.38-.16.23-1.49.27-2.3.16-3.43,3.5-3.87,3.33-8.55-.06-1.59-.15-4.15-.51-5.11l-2.17-5.77-1.93-6.1-.84-4c1.14-.2,3.27-1.15,4.22-1.9l4.19-3.31,3.84-3.18,7.67,5.4,1.88,5.28,1.93,3.75Z" style="fill:#6790e8;"/><path d="M344.84,341.25l.84,4,1.93,6.1,2.17,5.77c.36.97.45,3.52.51,5.11.17,4.68-3.17,5.12-3.33,8.55-.04.81.11,2.14-.27,2.3l-1.81.74-1.89,1.15-26.92.19-4.06.04.8-1.17,4.18-.04,15.05-.17,7.05-.24-6.28-.73c-.99-.11-2.13-2.59-2.03-3.77l.42-5.16c.14-1.76.82-5.13.56-6.67-.33-1.91-.81-4.65-.65-6l.87-10.38h4.97c4.37-2.44,6.75.58,7.9.37Z" style="fill:#6395e7;"/><path d="M463.3,526.13c.28-.09.55-.19.69-.17-.36.31,1.37,1.09,1.9,1.2l5.02.96,15.55,3.35,7.62,1.54,10.93,1.14,4.26.34,10.75,2.43,23.16.26s-1.76.68-2.24.69l-12.74.45-7.24.03-23.01-.43-6.99-.6-4.88-.25-15.31.08c-2.76.01-7.35,1.83-9.59-.42-.65-.76-2.07-2.07-3.07-2.59l-8.96-4.65c-1.62-.84-3.38-3.98-4.43-5.34l4.24-.06c5.08,1.29,9.68,2.02,14.35,2.03Z" style="fill:#9fa2f5;"/><path d="M448.03,510.1l2.42,1.35,11.65,6.51c2.76,1.54,6.52,2.85,9.59,3.38l6.25,1.07c2.17.37,4.98.51,6.93.46l1.19.78,5.04,1.21,7.16,1.81,4.88,1.24c.46.12,2.08.78,1.83,1.14l-11.17.16-5.9-.71-8.88-.84-9.15-.93-5.89-.76c-.14-.02-.41.09-.69.17l-1.3-1.1-7.42-4.45-5.05-3.26-3.92-2.93-8.01-5.92c-.44-.33-1.31-1.28-1.63-1.68l6.29,2.1c1.61.6,4.23,1.05,5.76,1.22Z" style="fill:#959cf3;"/><path d="M469.78,515.34c1.62.92,4.76,1.71,7.15,2.01l16.91,2.13,5.29.5,4.03.71c.58.1,2.21,1.28,1.76,1.89l-9.9.15-5.97.04-4.17.1c-1.95.05-4.76-.09-6.93-.46l-6.25-1.07c-3.07-.53-6.82-1.83-9.59-3.38l-11.65-6.51-2.42-1.35,1.1-6.09,10.39,5.51,10.26,5.82Z" style="fill:#8f96f1;"/><path d="M312.02,375.21l4.06-.04,26.92-.19,8.06.04c.23,0-1.77.96-2.5.96l-21.85.09-7.53.03c2.93,2.62,1.8,8.88-.28,12.65l-4,7.24-2.32,3.75-1.94,3.76-2.09,5.09-2.32,5.67-4.06,10.16-2.15,9.6-1.87,3.37c-1.36,2.45-2.05,5.21-2.83,8.91.08,0-2.19-.11-3.3-.13l-9-.2c.13-2.5,1.2-4.85,2.41-7.39l2-4.22,3.09-6.95,4.24-9.56,2.76-6.23,2.19-4.92,2.81-6.31,3.98-8.91,2.98-6.87,1.56-4.75c1.06-3.21-1.79-2.34-2.07-4.87l3.06.21Z" style="fill:#f1f8fb;"/><path d="M306.06,374.95l2.91.06c.28,2.53,3.13,1.66,2.07,4.87l-1.56,4.75-2.98,6.87-3.98,8.91-2.81,6.31-2.19,4.92-2.76,6.23-4.24,9.56-3.09,6.95-2,4.22c-1.2,2.54-2.27,4.9-2.41,7.39l-7.96.04.18-3.89c.1-1.06.74-3.91,1.28-4.82l4.34-7.34,3.44-8.7,5.79-12.03,3.25-6.9,2.28-4.87,2.47-4.45,3.85-11.12c.58-1.66-.42-5.56-.93-6.9l5.07-.05Z" style="fill:#e8f3f8;"/><path d="M300.99,374.99c.51,1.33,1.5,5.23.93,6.9l-3.85,11.12-2.47,4.45-2.28,4.87-3.25,6.9-5.79,12.03-3.44,8.7-4.34,7.34c-.54.91-1.17,3.77-1.28,4.82l-.18,3.89-4.89.02-.34,1.67-8.11-.27.09-1.29c.07-.23.29-.18.48-.18l4.27-.09,2.25-5.13,3.97-9.07,1.89-4.16,5.03-11.02,1.93-3.99,3.83-8.08,2.18-4.85,3.69-7.5,2.92-7.93.77-6.43-1.92-2.67,7.91-.03Z" style="fill:#ddecf6;"/><path d="M251.39,442.54l-2.34,4.24.91,1.12c.28-.21-1.43,1.18-1.7,1.64l-4.28,7.23-1.84,3.21-1.08-1.96-1.09-5.48-3.86-4.13c.35-.11-2.92.48-3.31-.06l-4.3-5.84-3.14-3.45,1.38-4.88-2.04-5.21-1.09-4.74-1.13-6.11-2.25-2.41-3.01-6.82c-2.2-4.99-3.47-9.56-5.93-14.13l-5.39-10.04c-1.05-1.95-4.23-2.68-6.99-2.03l-3.42-4.19-2.61-4.65c-1.24-2.21-4.17-6.18-5.93-7.75-.56-.5-3.3.62-3.92.89l-.29-2.29,3.14-5.8,12-21.85,1.74-3.17,3.16-.54,6.07,4.87c.44.35,2.24,1.13,2.72,1.34l2.23,3.76,2.71,4.31,4.76,8.14c.75,1.28.86,4.65.95,6.03l2.13,5.69,2.29,6.21,2.21,4.45c1.16,2.34,3.14,4.21,5.38,6.1.76,1.47,2.53,5.06,2.92,6.79l3.45,15.22,1.54,4.55,1.51,4.91,2.46,6.15,2.29,4.96,4.94,5.38-1.7,6.3-.25,4.04Z" style="fill:#ebfaf9;"/><path d="M254.14,457.87l1.06,5.99-3.65,3.86-4.65,4.02-4.05,2.07-5.34,1.69-3.71,1.59c.3,1.79-.15,1.92-1.07.71l1.26-2.76,3.52-6.49,4.64-8.57,1.84-3.21.53,2.39c.13.71,2.14.65,2.91.45l6.73-1.75Z" style="fill:#4ba6d8;"/><path d="M258.98,447.61l2.73-.18,8.11.27,9.32.3c.1,1.38-.78,4.27-2.05,4.75l-4.1,2.45-5.98-.23c-.67-.03-2.87.27-3.56.45l-9.31,2.43-6.73,1.75c-.77.2-2.78.25-2.91-.45l-.53-2.39,4.28-7.23c.27-.46,1.98-1.85,1.7-1.64l3.72.21c1.28.15,4.01-.42,5.31-.51Z" style="fill:#4998d6;"/><path d="M404.16,495.06l3.02.29,1.94,1.52,4.78,3.22,4.07,2.99,6.93,7.04,5.23,5.79,1.45,2.23-3.19-1.62c-1.28-.65-4.74-.18-6.29-.62l-3.41-.97c-2.68-1.62-7.45-4.8-10.71-5.67l-8.22-2.2-1.99-3.65-5.84-5.52c.78-.1,2.46-.29,3.21-.61l4.99-2.13c.81-.34,3.13-.19,4.02-.1Z" style="fill:#95acf4;"/><path d="M404.16,495.06c-.89-.09-3.21-.24-4.02.1l-4.99,2.13c-.75.32-2.43.5-3.21.61l-7.01.9-7.87,1.38-5.3-.14c-.57-1.2-2.37-3.41-3.6-4l-5.99-2.87.47-1.09,4.61-2.81,3.07-1.91,1.48-1.4,5.23.81,6.17.95,3.6.56,9.05,2.5,7.83,3.56.49.75Z" style="fill:#8daef1;"/><path d="M421.76,498c.9.14,3.08.88,3.96,1.36l5.91,3.23c1.35.74,3.43,3.02,4.36,4.2.32.4,1.18,1.35,1.63,1.68l8.01,5.92,3.92,2.93,5.05,3.26,7.42,4.45,1.3,1.1c-4.67-.01-9.27-.74-14.35-2.03l-4.24.06c-1.74-2.25-4.86-1.57-8.26-3.4l-4.87-2.62-1.45-2.23-5.23-5.79-6.93-7.04-4.07-2.99-4.78-3.22-1.94-1.52,5.17,1.15,9.4,1.5Z" style="fill:#95a3f4;"/><path d="M368.93,485.18l2.85.75-1.48,1.4-3.07,1.91-4.61,2.81-.47,1.09c-1.37-.66-4.52.5-6.09.61l-8.05.58-4.34.71-7.7-.25-3.78-.54-3.95.8-4.15-2.05,2.16-2.04c1.18-.92,3.24-2.03,4.86-2.82l5.35-2.62c.73-.36,2.33-1.98,2.48-2.24l6-.79c2.92-.38,6.01-.32,9,.07l8.33,1.11,6.65,1.49Z" style="fill:#84b1ef;"/><path d="M317.06,478.11l17.01-.14,4.88,5.33c-.15.26-1.75,1.88-2.48,2.24l-5.35,2.62c-1.62.79-3.68,1.9-4.86,2.82l-2.16,2.04-12.89.16-4.99,1.05-4.54.74c-.06-.71-1.04-1.97-1.75-1.99l1.71-4.35,2.05-4.01c.37-.72.3-2.96-.04-3.93l10.29-2.06,3.13-.52Z" style="fill:#7ab2eb;"/><path d="M275.81,483.06c-.13,1.43-.74,3.83-1.41,4.97l-2.65,5.08-6.8,3.68-4.7,3.37-1.45-.81-3.51-1.59-4.65-1.5.7-1.36,1.31-2.41c1.32-2.43,3.73-6.4,6.21-7.29,2.76-.99,5.98-1.31,9.09-1.55l7.87-.6Z" style="fill:#66bae6;"/><path d="M257.1,479.75l.8,2.26.96,3.19c-2.48.89-4.89,4.86-6.21,7.29l-1.31,2.41c-3.85.09-7.17,2.78-9.14,6.19l-5.89,6.26c-1.31,2.01-2.89,3.66-4.7,5.28l-2.5,2.02-.07-3.47,1.36-6.03.98-5.01.56-3.41c.54-3.24,2.06-6.76,4.24-9.33l2.86-3.37,5.54-1.6,6.25-1.58,6.26-1.11Z" style="fill:#5ab9e0;"/><path d="M303.65,480.68c.34.96.4,3.21.04,3.93l-2.05,4.01-1.71,4.35-6.94-.12-5.2.93-11.89.29c-1.02.03-3.05-.63-4.15-.96l2.65-5.08c.67-1.14,1.28-3.55,1.41-4.97l9.22-.7,10.9-.76,7.72-.91Z" style="fill:#71b7e8;"/><path d="M269.61,461.77l.78,3.85.64,3.47-6.2,3.8c-2.3,1.41-4.57,3.43-6.39,5.39l-1.36,1.47-6.26,1.11-6.25,1.58-5.54,1.6,2.3-5.51,1.51-4.71,4.05-2.07,4.65-4.02,3.65-3.86,7.82-1.07,6.59-1.02Z" style="fill:#57abde;"/><path d="M460.12,503.27l-6.84-6.19-.75-5.86-3.07-2.97-2.46-1.47-1.66-3.06-3.51-6.53,3.36-.21c3.5-.05,7.4-1.39,10.53-3.21,4-2.32,5.78-4.11,7.65-8.33l3.45-7.75,1.85-4.15,1.79-3.94,2.91-6.41c1.8-3.96,1.72-9.33,2.24-13.8.34-2.92.61-5.74-.01-8.5l-3.2-14.1-2.08-7.08-2.54-6.53c-.92-2.35-3.6-4.19-5.72-4.15l-.1-6.92,4.35-1.14c2.08.96,3.91,3.33,4.69,6.02l4.54,5.46,5.01,6.19,2.99,4.9,2.2,4.19c1.35,2.57-.35,7.11-.38,10.59l-.14,12.59-.08,12.41c-.03,4.5-4.89,6.64-3.72,16.78.47,4.11,4.93,6.78,3.65,14.36l-3.87,4.54c-.79.92-3.2,2.38-4.24,2.92-3.45.17-6.11,3.97-6.45,6.28-.45,3.04-8.46,3.58-10.37,15.06Z" style="fill:#a79afa;"/><path d="M326.71,376.07c1.48,2,1.56,8.01.99,10.98l-1.31,6.86c-.2,1.05.57,3.9.97,4.9l1.44,3.67,2.47,5.66,4.4,6.96,1.78,3.91,2.56,6.39,2.33,5.57,2.4,5.32-3.83,1.62,1.06,5.16,4.75-.7-.11,2-6.48.55-6.26,2.02,87.24.29-2.11.78h-97.98c-2.68.53-5.68.32-9.04.34l-13.92.11c-4.32.04-8.09.24-12.22-.03l-6.69-.43-9.32-.3.34-1.67,4.89-.02,7.96-.04,9,.2c1.11.02,3.38.13,3.3.13.78-3.7,1.47-6.46,2.83-8.91l1.87-3.37,2.15-9.6,4.06-10.16,2.32-5.67,2.09-5.09,1.94-3.76,2.32-3.75,4-7.24c2.08-3.77,3.21-10.02.28-12.65l7.53-.03Z" style="fill:#f9fdfc;"/><path d="M441.82,477.19l-6.89-12.02-.98-3.47,1.67.34,2.86-.86c4.57-1.38,9.72-4.1,12.62-7.84l3.68-4.75c.93-1.2,2.66-4.1,2.94-5.6l1.93-10.19.41-7.89.77-4.29c.39-2.17.19-6.98-.14-9.28-.18-1.27-2.53-3.64-3.19-4.8l-1.73-2.46,6.24-15.04c2.13-.04,4.81,1.8,5.72,4.15l2.54,6.53,2.08,7.08,3.2,14.1c.63,2.76.36,5.57.01,8.5-.52,4.48-.45,9.85-2.24,13.8l-2.91,6.41-1.79,3.94-1.85,4.15-3.45,7.75c-1.87,4.21-3.66,6.01-7.65,8.33-3.13,1.81-7.03,3.15-10.53,3.21l-3.36.21Z" style="fill:#a099f7;"/><path d="M433.95,461.7l-.73.58-6.9-13.17-.29-2.64c8.89-1.36,15.76-10.06,19.55-18.96l4.45-10.47,5.76-12.96,1.73,2.46c.65,1.16,3,3.53,3.19,4.8.33,2.3.53,7.1.14,9.28l-.77,4.29-.41,7.89-1.93,10.19c-.28,1.5-2.02,4.41-2.94,5.6l-3.68,4.75c-2.9,3.74-8.05,6.46-12.62,7.84l-2.86.86-1.67-.34Z" style="fill:#9394f4;"/><polygon points="426.03 446.47 426.32 449.11 423.91 449.02 376.73 448.98 322.36 449.07 321.01 448.01 418.98 448 421.1 447.22 426.03 446.47" style="fill:#557be1;"/><path d="M418.12,470.21l5.77,2.81,7.24,4.74,11.36,6.85,3.93,2.82c-.42.47.09-.1.58-.65l2.46,1.47,3.07,2.97.75,5.86c-1.17.7-3.8.75-5.21.19l-7.5-2.99-4.44-1.63-7.16-4.49-4.22-2.81-6.43-4.7-3.5-2.61c-2.28-1.7-4.63-2.78-7.71-3.58l-7.44-1.94-1.14-3.97-.65-2.53,5.38.65,6.61.5c.55.04,2.3.8,2.83,1l5.42,2.03Z" style="fill:#7b91ef;"/><path d="M399.66,472.52l7.44,1.94c3.07.8,5.43,1.88,7.71,3.58l3.5,2.61,6.43,4.7,4.22,2.81,7.16,4.49-.24,2.47-2.19-.91-7.76-3.23-4.8-2.21c-3.36-1.55-7.31-4.15-10.96-4.65l-8.35-1.15-8.07-2.83-6.59-1.5c-1.85-.42-4.44-.72-5.82-.57l-1.56-.64-7.44-2.7-3.46-1.31.28-1.17c.92.22,2.61-.05,4.09-.06l23.45-.1c.71,0,2.39.31,2.95.46Z" style="fill:#819bef;"/><path d="M435.88,495.11l8.33,5.86,4.92,3.03-1.1,6.09c-1.53-.16-4.15-.62-5.76-1.22l-6.29-2.1c-.93-1.18-3.01-3.46-4.36-4.2l-5.91-3.23c-.88-.48-3.06-1.21-3.96-1.36l-3.82-3.98-7.64-6.19-6.58-3.55-1.9-1.34,8.35,1.15c3.65.5,7.6,3.11,10.96,4.65l4.8,2.21,7.76,3.23,2.19.91Z" style="fill:#8a9cf2;"/><path d="M272.99,455.21l10.87,2.14,5.28.85s-1.67.67-2.13.71l-6.01.45-4.73.85-6.66,1.56-6.59,1.02-7.82,1.07-1.06-5.99,9.31-2.43c.69-.18,2.89-.48,3.56-.45l5.98.23Z" style="fill:#519eda;"/><path d="M321.01,448.01l1.36,1.06-.43,4.89c-.82.08-2.31.52-2.79.75l-6.31.46-7.67,1.65-8.27.94-7.75.44-5.28-.85-10.87-2.14,4.1-2.45c1.27-.48,2.14-3.38,2.05-4.75l6.69.43c4.12.26,7.89.06,12.22.03l13.92-.11c3.36-.03,6.36.19,9.04-.33Z" style="fill:#5394dc;"/><path d="M381.34,478.05c1.38-.16,3.97.15,5.82.57l6.59,1.5,8.07,2.83,1.9,1.34,6.58,3.55,7.64,6.19,3.82,3.98-9.4-1.5-5.17-1.15-3.02-.29-.49-.75-7.83-3.56-9.05-2.5-3.6-.56-6.17-.95-5.23-.81-2.85-.75,6.02-6.41,6.39-.73Z" style="fill:#89a4f1;"/><path d="M368.89,473.4l3.46,1.31,7.44,2.7,1.56.64-6.39.73-6.02,6.41-6.65-1.49-8.33-1.11c-2.99-.4-6.08-.46-9-.07l-6,.79-4.88-5.33,2-.53,9.15-2.18,5.71-1.2,12.9-.4c1.62-.05,3.94-.69,5.06-.26Z" style="fill:#7fa7ee;"/><path d="M350.79,466.84c-.14.52,1.92,1.52,2.76,1.72l7.88,1.85,7.73,1.81-.28,1.17c-1.12-.42-3.45.21-5.06.26l-12.9.4-5.71,1.2-9.15,2.18-2,.53-17.01.14,1.81-3.21,3-4.96,2.12-.71,6.99-.57,8.03-.66,7.08-.65,4.69-.5Z" style="fill:#76a5eb;"/><path d="M321.87,469.94l-3,4.96-1.81,3.21-3.13.52-10.29,2.06-7.72.91-10.9.76-9.22.7c1.07-3.72,4.78-6.07,8.46-7.76,1.37-.63,3.45-2.04,4.64-2.09l9.09-.4,4.08-.63,5.09-.88,10.78-.51,3.91-.84Z" style="fill:#6dade7;"/><path d="M277.75,469.12l6.86,2.33,4.3,1.76c-1.19.05-3.28,1.46-4.64,2.09-3.68,1.7-7.39,4.04-8.46,7.76l-7.87.6c-3.11.24-6.33.56-9.09,1.55l-.96-3.19-.8-2.26,1.36-1.47c1.82-1.96,4.09-3.98,6.39-5.39l6.2-3.8,6.71.03Z" style="fill:#65aee4;"/><path d="M319.13,454.72l2.48,2.78,1.36,1.49c-1.23,1.01-3.46,2.51-4.94,2.85l-12.05,2.84-10.17,1.92c-1.01.32-3.93,1.3-5.06,1.31l-10.75.13-2.24,1.07-6.71-.03-.64-3.47-.78-3.85,6.66-1.56,4.73-.85,6.01-.45c.46-.03,2.13-.66,2.13-.71l7.75-.44,8.27-.94,7.67-1.65,6.31-.46Z" style="fill:#609fe1;"/><path d="M433.22,462.28l.73-.58.98,3.47,6.89,12.02,3.51,6.53,1.66,3.06c-.5.56-1.01,1.13-.58.65l-3.93-2.82-11.36-6.85-7.24-4.74-5.77-2.81-2.14-2.13-6.23-4.08-4.78-3.13-6.4-2.53-4.46-1.38-2.09-.88c2.35-.58,6.93.08,9.88.53l6.52.98,10.1,2.77,6.51,1.48,6.05,1.06c.55.1,2.26-.55,2.15-.63Z" style="fill:#7188ec;"/><path d="M426.32,449.11l6.9,13.17c.11.08-1.6.72-2.15.63l-6.05-1.06-6.51-1.48-10.1-2.77-6.52-.98c-2.95-.44-7.52-1.1-9.88-.53l-4.02.99-9.9-.04-7.97-.03c-.48,0-2.35-.87-2.05-.81l2.27-.95c2.23-.41,5.3-2.22,6.97-3.72l-.58-2.53,47.18.03,2.41.09Z" style="fill:#6583e8;"/><path d="M376.73,448.98l.58,2.53c-1.67,1.5-4.74,3.31-6.97,3.72l-2.27.95-8.64-.63-7.45-.87c-3.12-.37-6.52-.43-9.52-.32l-7.26.27-7.03-1.29-6.24.61.43-4.89,54.37-.09Z" style="fill:#5e89e4;"/><path d="M418.12,470.21l-5.42-2.03c-.53-.2-2.28-.96-2.83-1l-6.61-.5-5.38-.65-4.98-.61-3.21.59-8.49-.05h-3.28s-13.82-.11-13.82-.11l-5.03.13c.34.1-.85-.92-1.19-1.11l-4.78-2.65,1.92-1.15,9.64-.18,4.29-.84,7.06-1.78c.54-.14,2.32-.92,2.08-1.22l9.9.04,4.02-.99,2.09.88,4.46,1.38,6.4,2.53,4.78,3.13,6.23,4.08,2.14,2.13Z" style="fill:#6f8fea;"/><path d="M397.88,466.02l.65,2.53,1.14,3.97c-.56-.15-2.25-.46-2.95-.46l-23.45.1c-1.48,0-3.17.27-4.09.06l-7.73-1.81-7.88-1.85c-.84-.2-2.91-1.2-2.76-1.72l3.02-.32,5.27-.56,5.03-.13,13.82.11h3.28s8.49.05,8.49.05l3.21-.59,4.98.61Z" style="fill:#7798ec;"/><path d="M368.07,456.19c-.31-.06,1.57.81,2.05.81l7.97.03c.23.3-1.55,1.08-2.08,1.22l-7.06,1.78-4.29.84-9.64.18-1.92,1.15c-1.73-.96-5.44-.96-8.03-1.18l-9.05-.79-6.23-.83-6.81-.4-1.36-1.49-2.48-2.78c.49-.23,1.97-.67,2.79-.75l6.24-.61,7.03,1.29,7.26-.27c2.99-.11,6.4-.05,9.52.32l7.45.87,8.64.63Z" style="fill:#6591e6;"/><path d="M353.1,462.2l4.78,2.65c.34.19,1.53,1.21,1.19,1.11l-5.27.56-3.02.32-4.69.5-7.08.65-8.03.66-6.99.57-.79-1.44-5.18-5.95c1.48-.35,3.72-1.84,4.94-2.85l6.81.4,6.23.83,9.05.79c2.59.23,6.3.23,8.03,1.18Z" style="fill:#6c9ee7;"/><path d="M318.03,461.84l5.18,5.95.79,1.44-2.12.71-3.91.84-10.78.51-5.09.88-4.08.63-9.09.4-4.3-1.76-6.86-2.33,2.24-1.07,10.75-.13c1.13-.01,4.05-.99,5.06-1.31l10.17-1.92,12.05-2.84Z" style="fill:#68a5e5;"/></svg>